<svg width="384" height="384" viewBox="0 0 384 384" fill="none" xmlns="http://www.w3.org/2000/svg">
<rect width="384" height="384" fill="#F2F1F9" fill-opacity="0.19"/>
<path d="M256.523 118.465C258.866 119.941 260.723 122.074 261.863 124.598C263.391 128.179 264.468 131.936 265.066 135.783C264.182 135.806 263.302 135.917 262.44 136.115C262.339 136.115 261.762 136.418 261.661 136.735C261.198 138.335 260.846 139.965 260.607 141.613L231.743 141.787C231.412 141.787 231.455 142.176 231.743 142.191C231.743 142.191 258.096 142.595 260.607 142.609C259.972 147.862 260.506 153.635 264.229 157.358C267.736 160.822 279.657 161.313 284.088 158.008C287.768 155.251 288.677 147.285 288.417 142.609C289.283 142.609 308.795 142.263 310.729 142.191C310.782 142.191 310.834 142.169 310.872 142.131C310.909 142.094 310.931 142.042 310.931 141.989C310.931 141.935 310.909 141.884 310.872 141.846C310.834 141.808 310.782 141.787 310.729 141.787C307.438 141.787 288.374 141.642 288.374 141.642C287.984 137.313 286.931 136.88 286.931 136.678C286.919 136.544 286.865 136.418 286.777 136.316C286.689 136.215 286.571 136.145 286.44 136.115C285.184 135.869 283.909 135.739 282.63 135.725C284.65 132.478 286.382 123.646 289.557 117.729C294.262 108.911 311.97 117.31 311.681 109.517C311.335 100.858 301.723 95.9944 291.405 100.584C281.605 104.913 279.051 125.118 278.878 135.667C275.919 135.667 277.348 135.754 273.105 135.667C276.814 130.732 281.533 114.28 280.711 102.777C279.768 95.1441 276.556 87.9696 271.489 82.1832C267.044 77.2043 261.834 75.0972 257.908 79.0948C252.136 84.8675 257.447 91.3185 262.382 97.8561C267.809 105.072 269.843 108.666 270.579 118.941C270.924 124.516 270.818 130.11 270.262 135.667H268.66C269.901 131.612 268.299 122.679 267.13 118.479C265.456 112.548 262.599 106.573 258.067 102.46C252.714 97.8375 246.203 94.7593 239.234 93.5555C234.976 92.8339 231.339 93.1081 229.362 94.2915C228.635 94.6697 228.074 95.3034 227.786 96.0708C227.498 96.8382 227.504 97.6849 227.804 98.4479C230.199 106.284 247.142 112.692 256.523 118.465ZM291.693 101.507C301.348 97.1779 310.238 101.724 310.541 109.575C310.772 115.593 293.411 108.132 288.677 117.353C285.386 123.732 283.929 132.651 281.937 135.74H280.913C282.356 129.375 285.892 115.218 290.048 110.21C295.359 103.73 304.61 107.511 305.014 107.41C305.172 107.41 305.331 107.15 304.855 106.977C299.082 104.884 293.208 104.928 289.283 109.575C284.564 115.145 281.591 128.567 280.35 135.783H279.109C279.498 125.681 282.327 105.62 291.693 101.507ZM271.315 118.927C270.738 108.738 268.862 105 263.161 97.2789C258.486 91.001 253.478 85.0119 258.644 79.7731C262.166 76.194 266.755 78.3299 270.738 82.8327C275.615 88.4786 278.692 95.455 279.57 102.864C280.509 114.554 275.746 131.338 272.355 135.682H271.59C273.133 129.074 274.133 122.35 274.577 115.578C274.909 109.806 274.808 105.794 273.134 100.771C271.759 96.9475 269.849 93.3374 267.462 90.0485C266.323 88.4263 265.069 86.8878 263.71 85.4448C263.675 85.4027 263.626 85.376 263.572 85.3706C263.517 85.3652 263.463 85.3815 263.421 85.4159C263.379 85.4504 263.352 85.5002 263.347 85.5543C263.342 85.6084 263.358 85.6625 263.392 85.7046C263.754 86.0823 264.091 86.4824 264.403 86.9024C268.905 92.6751 273.35 101.103 273.697 108.55C274.043 115.997 272.557 128.423 271.186 135.783H270.781C271.419 130.188 271.597 124.55 271.315 118.927ZM286.021 137.342C288.403 139.521 287.652 153.996 283.337 157.229C279.022 160.461 267.78 159.696 264.72 156.738C259.9 152.105 260.391 143.432 262.036 136.995C262.138 137.13 262.279 137.231 262.44 137.284C263.549 137.54 264.68 137.694 265.817 137.746C264.404 142.983 264.651 148.53 266.524 153.621C266.593 153.766 266.717 153.878 266.868 153.932C267.02 153.986 267.187 153.978 267.332 153.909C267.478 153.84 267.59 153.716 267.644 153.565C267.698 153.413 267.69 153.246 267.621 153.101C265.803 149.464 265.312 141.382 266.365 137.847C270.868 138.049 282.919 138.135 286.021 137.342ZM257.447 103.196C267.231 111.855 269.742 131.035 268.227 135.711H267.332C267.127 131.7 266.429 127.731 265.254 123.891C262.137 113.789 256.913 107.583 248.903 102.907C244.719 100.514 240.241 98.6753 235.582 97.4376C235.529 97.4242 235.472 97.4327 235.425 97.4611C235.377 97.4895 235.343 97.5356 235.33 97.5892C235.316 97.6427 235.325 97.6995 235.353 97.7468C235.382 97.7942 235.428 97.8283 235.481 97.8417C240.92 99.5661 246.081 102.064 250.808 105.26C256.049 108.749 260.141 113.71 262.57 119.518C264.874 124.653 266.336 130.125 266.899 135.725H265.543C265.009 131.764 263.981 127.885 262.483 124.18C261.313 121.515 259.392 119.248 256.956 117.657C247.416 111.783 230.979 105.346 228.785 98.1304C226.75 91.5062 246.363 93.2668 257.447 103.196ZM132.655 177.505C113.432 170.823 96.2002 167.836 85.4773 165.137C85.3445 165.1 85.2056 165.09 85.0688 165.107C84.932 165.125 84.8001 165.17 84.6812 165.24C84.5622 165.31 84.4586 165.403 84.3766 165.514C84.2945 165.625 84.2357 165.751 84.2036 165.885C84.1715 166.019 84.1668 166.159 84.1899 166.295C84.2129 166.431 84.2632 166.561 84.3376 166.677C84.4121 166.793 84.5093 166.893 84.6233 166.97C84.7373 167.048 84.8658 167.102 85.0011 167.129C91.8995 168.788 102.319 170.693 113.59 173.306C132.207 177.635 132.612 178.92 132.915 178.025C132.947 177.921 132.938 177.809 132.89 177.713C132.841 177.616 132.757 177.541 132.655 177.505ZM284.982 189.181C284.982 189.146 284.976 189.113 284.963 189.081C284.95 189.05 284.93 189.021 284.906 188.997C284.882 188.973 284.854 188.954 284.822 188.941C284.79 188.927 284.757 188.921 284.723 188.921C272.066 188.921 259.756 191.807 252.785 192.457C252.7 192.464 252.618 192.488 252.542 192.528C252.467 192.567 252.4 192.622 252.346 192.688C252.293 192.754 252.253 192.83 252.229 192.912C252.205 192.993 252.198 193.079 252.208 193.164C252.215 193.249 252.239 193.332 252.279 193.408C252.318 193.484 252.372 193.552 252.438 193.607C252.504 193.662 252.58 193.703 252.662 193.729C252.744 193.754 252.83 193.763 252.915 193.755C258.024 193.25 266.87 191.316 275.154 190.248C284.347 189.181 284.997 189.83 284.982 189.181ZM241.384 219.213C241.396 219.189 241.404 219.164 241.407 219.137C241.409 219.11 241.406 219.083 241.398 219.058C241.39 219.032 241.377 219.009 241.36 218.988C241.342 218.968 241.321 218.951 241.297 218.939L240.937 218.751L240.85 219.184C241.095 219.3 241.283 219.487 241.384 219.213Z" fill="#282A42"/>
<path d="M329.043 222.821C325.334 222.056 316.17 222.359 312.389 222.691C315.506 212.041 318.724 198.157 320.023 190.508C320.493 188.392 320.697 186.225 320.629 184.057C320.582 183.863 320.494 183.68 320.373 183.521C320.251 183.362 320.097 183.23 319.922 183.134C314.149 179.511 253.666 187.463 249.452 189.556C248.196 190.176 247.07 193.308 246.565 194.722C242.827 188.575 243.217 187.117 239.046 177.404C236.447 171.078 233.151 165.061 229.218 159.466C229.319 158.701 233.317 128.841 229.031 120.861C226.144 115.521 210.515 113.645 204.497 113.14C204.497 112.822 203.746 107.367 203.429 104.899C208.509 100.656 210.644 92.8485 205.132 91.5352C201.22 90.6115 185.778 87.6675 174.276 90.6404C167.06 92.5165 161.288 96.7306 160.797 105.072C160.603 108.24 160.797 111.419 161.374 114.539C153.913 115.362 141.069 116.589 134.517 119.057C126.089 122.232 129.639 159.105 130.534 162.092C130.043 163.304 129.581 164.531 129.163 165.671C108.164 160.317 61.16 150.33 59.0674 150.518C58.5223 150.511 57.9841 150.64 57.5006 150.891C57.0172 151.143 56.6035 151.511 56.2965 151.961C55.7336 152.091 55.5316 152.885 55.4306 153.404C53.9874 161.082 56.5995 206.932 57.0614 214.711C57.8262 217.51 80.0656 223.586 82.952 224.38C83.0963 228.175 83.8612 247.023 84.0199 250.891C82.7644 250.662 81.5216 250.368 80.2965 250.011C77.7277 248.957 67.8852 258.54 68.7511 257.746C64.9844 261.094 105.971 272.106 109.247 271.182C112.523 270.258 119.003 264.067 117.906 260.618C117.603 260.004 117.091 259.518 116.463 259.247C113.36 257.616 105.148 255.61 101.728 254.788C102.06 247.803 102.06 236.344 102.045 229.388C106.101 230.398 129.119 235.969 133.276 235.896C133.574 235.901 133.867 235.826 134.127 235.68C135.455 235.492 137.013 235.16 137.143 233.804C137.143 233.4 137.475 229.878 137.894 224.654C148.068 228.536 160.407 228.248 162.601 227.353C163.192 227.068 163.692 226.623 164.044 226.068C164.145 226.198 164.189 226.169 164.953 226.285C167.84 226.747 172.458 227.18 175.056 225.823C178.736 226.415 189.401 227.266 190.195 223.702C190.296 223.225 190.44 222.258 190.584 221.089C201.264 221.667 239.191 221.407 239.335 221.407L238.454 225.376C238.432 225.343 238.402 225.316 238.367 225.299C238.331 225.281 238.292 225.273 238.252 225.275C238.252 225.159 238.252 225.188 238.252 225.275C232.343 224.809 226.413 224.655 220.487 224.813C218.38 224.914 212.824 225.174 212.723 227.223C211.985 228.965 211.877 230.909 212.42 232.721C212.737 233.861 215.421 235.709 216.417 236.387C210.774 235.824 207.484 236.041 205.781 236.647C205.376 236.717 204.998 236.899 204.69 237.171C204.382 237.444 204.156 237.796 204.036 238.19C203.917 238.583 203.908 239.002 204.013 239.399C204.117 239.797 204.329 240.158 204.626 240.442C206.56 243.098 210.587 243.993 211.02 247.471C211.842 254.066 195.073 261.527 188.953 264.139C192.027 260.098 200.268 247.384 196.27 244.31C191.825 240.89 153.711 239.389 150.204 240.284C147.736 240.919 129.596 254.326 129.927 259.045C130.158 262.119 148.01 265.135 151.33 265.712C155.068 266.347 181.738 270.504 184.927 268.469C185.603 268.196 186.218 267.79 186.734 267.274C187.249 266.758 187.656 266.144 187.929 265.467C193.455 263.567 198.774 261.111 203.804 258.136C211.741 253.215 216.186 247.124 208.335 242.001C207.397 241.395 204.828 239.548 205.204 238.509C206.012 236.214 217.168 237.065 217.326 237.065C222.507 240.442 232.422 245.652 238.267 247.168C244.444 248.798 273.307 245.638 280.278 244.757C281.072 247.644 281.836 250.328 282.342 251.973C281.259 252.06 278.171 252.334 277.305 253.012C276.829 253.388 276.843 254.023 277.608 254.456C277.608 259.29 277.016 273.751 278.459 280.274C279.008 282.713 279.643 283.723 282.168 284.604C286.945 286.148 296.124 285.599 300.93 284.315C303.917 283.507 304.307 282.872 304.783 281.284C306.428 275.887 306.342 259.954 306.226 254.297C306.319 254.23 306.394 254.142 306.446 254.041C306.498 253.939 306.525 253.826 306.525 253.712C306.525 253.598 306.498 253.486 306.446 253.384C306.394 253.283 306.319 253.195 306.226 253.128C305.159 252.633 304.009 252.339 302.835 252.262C303.037 250.646 304.119 241.611 304.278 240.024C305.032 239.571 305.705 238.996 306.269 238.321C307.152 237.249 307.725 235.957 307.929 234.583C309.372 232.693 311.45 225.635 312.129 223.326C318.565 223.6 328.004 223.225 328.884 223.326C328.951 223.347 329.024 223.341 329.086 223.308C329.148 223.276 329.195 223.22 329.216 223.153C329.237 223.086 329.231 223.014 329.198 222.951C329.166 222.889 329.11 222.842 329.043 222.821ZM133.968 253.965C134.935 252.897 136.075 251.786 137.288 250.66C142.44 245.898 148.992 241.106 150.421 240.745C153.884 239.851 191.926 242.189 195.794 245.075C196.444 245.566 196.573 246.518 196.444 247.658C195.924 252.19 191.19 259.666 188.434 263.317C185.317 260.632 138.096 254.528 133.968 253.965ZM204.684 114.179C210.197 114.698 225.654 116.473 228.309 121.294C232.061 128.076 229.752 151.211 228.829 158.816C228.02 157.734 227.183 156.709 226.332 155.771C221.439 150.402 213.04 147.704 205.925 146.333C201.355 145.537 196.744 144.992 192.114 144.702C191.97 144.702 192.201 144.918 191.061 142.58C189.358 139.073 189.257 139.131 189.43 139.03C191.322 138.929 193.196 138.61 195.015 138.078C199.893 136.635 202.794 133.748 204.165 126.734C204.909 122.577 205.064 118.336 204.626 114.135L204.684 114.179ZM192.258 145.149C193.168 145.279 193.413 145.265 193.485 145.308C193.485 145.669 196.646 162.626 185.822 163.405C176.874 164.142 170.986 151.586 167.811 143.201C168.965 143.013 169.889 142.883 170.51 142.797C170.813 149.378 180.28 161.313 185.533 160.476C191.436 159.509 194.337 150.532 192.258 145.149ZM170.712 118.595C170.841 117.951 171.129 117.35 171.55 116.846C171.971 116.341 172.511 115.951 173.122 115.708C176.008 115.001 176.008 118.595 178.303 118.393C181.189 118.205 177.971 111.509 180.453 107.425C183.152 102.922 194.091 112.028 202.938 105.274C204.006 112.88 205.175 118.797 203.544 126.561C202.101 133.373 199.417 135.884 194.784 137.241C192.88 137.679 190.953 138.007 189.011 138.222C188.856 138.31 188.726 138.435 188.633 138.586C188.539 138.738 188.486 138.91 188.477 139.088C188.477 139.593 189.92 142.176 191.263 145.193C193.269 149.926 190.656 158.528 185.374 159.35C181.622 159.942 174.276 151.528 172.184 145.582C171.26 142.956 171.534 142.855 173.165 132.594C175.46 132.752 175.936 128.264 176.051 125.941C176.075 125.448 175.904 124.966 175.575 124.598C174.536 123.458 173.685 124.786 171.664 122.26C171.223 121.77 170.907 121.182 170.741 120.544C170.575 119.906 170.565 119.237 170.712 118.595ZM161.576 115.579C163.51 124.411 168.59 130.544 172.083 132.247C171.448 136.303 170.726 140.82 170.539 142.191C162.211 142.608 153.998 144.312 146.192 147.242C142.726 148.569 139.495 150.445 136.624 152.798C135.036 144.572 139.121 128.495 138.615 123.935C138.384 122.001 137.836 119.951 135.946 119.533C142.411 117.498 154.389 116.343 161.576 115.579ZM135.08 119.908C135.425 119.92 135.763 120.001 136.076 120.148C136.389 120.294 136.668 120.502 136.898 120.76C137.549 121.741 137.877 122.902 137.836 124.079C138.154 128.408 133.665 144.37 136.191 153.217C133.758 155.498 131.916 158.336 130.822 161.486C129.668 154.458 127.748 122.463 135.08 119.908ZM83.2262 185.659C83.3416 184.981 84.5828 184.678 85.2611 184.562C90.2689 183.74 100.674 186.597 100.443 190.075C100.097 195.228 101.684 257.66 100.328 259.954C98.7115 262.711 89.8792 261.181 86.3579 258.727C84.756 257.616 84.7848 256.664 84.8281 256.851C83.6014 207.711 83.0241 186.785 83.2262 185.659ZM116.679 261.094C117.415 263.548 111.628 269.191 108.944 269.941C106.259 270.691 66.6874 260.445 69.2707 258.107C68.0728 259.189 75.7072 252.161 79.0698 251.035C79.3379 250.902 79.6442 250.866 79.9357 250.934C80.3254 251.107 81.8552 251.497 84.0632 252.017C84.1931 255.062 84.2797 256.866 84.2797 256.866C85.1312 261.109 98.7115 264.313 101.078 260.402C101.441 259.016 101.635 257.591 101.656 256.159C103.864 256.707 115.193 259.463 116.679 261.094ZM133.276 234.67C129.48 234.814 105.855 229.272 102.045 228.377C101.973 211.463 101.627 192.5 101.8 190.162C102.146 184.851 88.6381 181.965 83.8756 183.523C83.4037 183.627 82.97 183.86 82.6232 184.197C82.2765 184.533 82.0305 184.96 81.9129 185.428C81.5954 187.348 82.8365 221.508 82.9087 223.557C80.5563 222.922 58.519 217.048 57.6098 214.696C57.3644 209.385 55.012 158.037 56.6861 153.173C64.537 155.136 131.587 168.659 136.306 171.935C137.49 175.182 134.791 230.08 133.276 234.67ZM136.667 233.818C136.667 234.785 135.383 235.117 134.43 235.261C135.989 231.524 139.092 174.648 137.504 171.3C135.917 167.951 63.5124 153.881 56.7439 151.99C57.0449 151.664 57.4114 151.406 57.8193 151.232C58.2272 151.058 58.6672 150.972 59.1107 150.98C61.1167 150.835 135.152 167.374 139.452 169.741C140.174 171.819 139.452 186.294 139.351 188.676C139.092 194.419 136.725 233.039 136.667 233.818ZM175.633 224.048C173.944 226.299 167.955 226.025 165.141 225.765H164.448C165.732 223.184 166.46 220.362 166.584 217.481C168.027 217.077 173.309 215.851 174.118 217.149C174.363 217.525 173.584 217.972 173.18 218.189C172.112 218.684 170.995 219.061 169.846 219.314C169.675 219.347 169.525 219.446 169.428 219.589C169.33 219.733 169.294 219.909 169.326 220.079C169.359 220.249 169.458 220.4 169.601 220.497C169.745 220.595 169.921 220.631 170.091 220.599C171.534 220.397 175.474 219.848 176.874 220.324C176.297 221.125 175.469 221.709 174.522 221.984C173.172 221.975 171.825 222.086 170.495 222.316C170.304 222.352 170.132 222.458 170.013 222.612C169.894 222.767 169.837 222.96 169.851 223.154C169.865 223.349 169.951 223.531 170.091 223.666C170.231 223.802 170.416 223.881 170.611 223.889C172.077 223.932 173.539 223.732 174.94 223.297C175.305 223.313 175.663 223.401 175.994 223.557C175.901 223.751 175.762 223.92 175.59 224.048H175.633ZM189.285 223.543C189.224 223.768 189.11 223.974 188.951 224.145C188.793 224.316 188.596 224.446 188.376 224.524C185.706 225.967 178.967 225.708 175.965 225.404C177.076 224.553 177.726 223.168 176.6 222.403C178.822 220.959 178.591 219.415 177.134 218.968C176.19 218.739 175.214 218.671 174.247 218.766C175.157 218.088 175.489 217.323 174.94 216.5C174.146 215.374 172.054 215.519 170.755 215.735C170.137 210.022 169.819 204.279 169.802 198.532C173.656 201.332 186.428 201.419 190.887 198.763C191.104 203.612 189.646 221.436 189.228 223.543H189.285ZM176.903 220.267C176.903 220.267 176.86 220.296 176.86 220.267H176.903ZM207.874 220.584C210.543 212.777 210.919 196.238 210.76 187.968C212.997 191.562 225.192 208.793 225.278 208.938C225.575 209.391 225.923 209.808 226.317 210.179C229.225 212.836 232.489 215.076 236.016 216.832C239.782 218.824 240.085 218.723 240.056 218.881L239.551 221.046C239.306 221.032 210.082 220.584 207.83 220.584H207.874ZM214.094 227.064C217.196 224.899 238.296 225.881 238.527 225.736V225.895C236.506 235.564 235.727 239.057 235.482 240.327C235.611 239.764 236.405 235.997 237.314 231.827C237.949 228.767 238.758 225.13 239.58 221.277C239.955 219.516 240.201 218.391 240.215 218.304C236.261 216.211 230.228 212.603 227.068 209.414C226.274 208.606 210.933 187.348 210.789 187.102C210.644 186.857 210.644 180.522 210.486 180.233C210.455 180.2 210.416 180.178 210.372 180.168C210.329 180.159 210.283 180.163 210.242 180.18C210.201 180.198 210.167 180.227 210.143 180.265C210.119 180.303 210.108 180.347 210.11 180.392C209.966 180.392 210.11 211.247 207.441 220.541L190.815 220.7C190.916 219.892 191.017 218.953 191.133 217.943C197.829 218.795 200.874 211.449 199.099 205.46C198.045 202.169 195.332 201.664 192.229 203.252C192.374 201.33 192.374 199.4 192.229 197.479C192.363 197.147 192.386 196.781 192.295 196.435C192.204 196.09 192.004 195.782 191.724 195.56C189.574 193.539 183.556 193.323 180.626 193.323C177.697 193.323 171.664 193.553 169.528 195.56C169.341 195.704 169.193 195.892 169.095 196.108C167.999 198.085 170.106 215.418 170.365 215.793C169.108 216.043 167.869 216.376 166.656 216.789V214.48C166.57 209.443 150.464 206.643 149.915 203.771C149.728 202.79 149.425 200.596 149.078 197.998C147.13 183.74 147.419 184.288 147.101 184.288C147.048 184.288 146.996 184.31 146.958 184.347C146.921 184.385 146.899 184.437 146.899 184.49C146.899 184.88 148.458 200.582 149.021 203.916C149.584 207.249 165.574 210.482 165.646 214.48C165.646 217.597 164.953 225.332 162.255 226.444C160.624 227.136 148.01 227.771 137.952 224.235C138.168 221.436 142.18 171.314 140.246 169.092C139.51 168.24 130.866 166.075 129.769 165.801C134.098 155.988 137.302 147.906 167.407 143.187C168.243 145.989 169.265 148.732 170.466 151.398C173.526 157.936 178.707 164.993 185.88 164.387C194.12 163.68 195.448 154.746 194.134 146.592C194.048 146.015 193.961 145.64 193.889 145.308C197.849 145.704 201.785 146.311 205.68 147.126C212.477 148.57 220.833 151.312 225.495 156.478C230.531 162.02 234.933 170.578 238.022 177.419C242.467 187.261 242.438 189.801 246.262 195.473C243.573 203.959 241.318 212.576 239.508 221.291C238.931 223.99 238.065 228.103 237.242 231.841C236.044 237.614 235.323 241.265 235.395 240.5C235.265 241.279 235.395 241.251 235.395 241.438C230.69 239.34 226.15 236.889 221.815 234.107C220.299 233.097 212.564 228.146 214.094 227.035V227.064ZM192.114 206.196C192.114 205.445 192.201 204.753 192.229 204.031C194.842 202.977 197.165 203.136 197.872 205.864C199.315 210.814 197.035 217.409 191.219 217.409C191.219 216.717 191.465 214.739 191.493 214.523C198.132 215.418 198.089 203.266 192.114 206.196ZM191.551 213.902C191.753 211.622 191.926 209.212 192.071 206.946C192.762 206.733 193.501 206.733 194.192 206.946C195.91 207.567 195.635 213.527 191.479 213.902H191.551ZM238.758 245.926C233.204 244.11 227.832 241.781 222.709 238.97C221.266 238.205 213.791 234.136 213.285 232.563C212.849 231.158 212.804 229.661 213.156 228.233C215.089 232 227.356 238.335 231.296 240.197C233.1 241.048 234.962 241.772 236.867 242.362C243.534 244.743 272.138 240.919 279.167 240.053C279.253 240.356 279.859 242.679 280.09 243.516C273.971 244.223 244.501 247.442 238.685 245.926H238.758ZM303.239 282.222C301.132 284.012 288.489 285.513 282.529 283.666C280.364 282.987 279.931 282.295 279.412 280.101C278.939 277.721 278.64 275.309 278.517 272.885C281.476 274.703 286.902 275.165 290.38 275.266C295.619 275.382 300.771 275.266 304.985 272.885C304.898 274.415 304.408 281.227 303.239 282.222ZM305.028 272.322C302.182 273.54 299.119 274.173 296.023 274.184C291.895 274.386 282.226 274.357 278.488 272.365C278.33 269.652 278.229 266.752 278.185 264.053C279.628 265.785 287.321 266.564 290.395 266.665C295.879 266.78 300.973 266.665 305.36 264.067C305.36 263.923 305.317 267.343 305.043 272.322H305.028ZM305.36 263.562C298.144 267.199 280.235 265.554 278.171 263.562V254.687C282.76 256.317 300.901 256.202 305.447 254.687C305.418 256.346 305.432 259.723 305.375 263.562H305.36ZM302.474 253.85C302.526 253.864 302.581 253.859 302.629 253.835C302.677 253.811 302.714 253.77 302.734 253.72C302.734 253.72 302.734 253.46 302.82 252.998C303.75 253.126 304.668 253.334 305.562 253.619C302.402 255.062 283.381 255.192 278.633 253.792C278.6 253.782 278.572 253.762 278.552 253.734C278.532 253.707 278.521 253.674 278.521 253.64C278.521 253.606 278.532 253.573 278.552 253.546C278.572 253.519 278.6 253.499 278.633 253.489C279.956 253.129 281.308 252.888 282.673 252.767C282.769 253.169 282.914 253.556 283.106 253.922C283.222 254.037 283.41 254.052 283.395 253.763C283.381 253.474 278.647 234.785 277.925 230.672C278.663 230.918 279.451 230.98 280.218 230.852C280.985 230.723 281.709 230.409 282.327 229.936C283.915 234.381 288.98 254.383 289.283 254.383C289.338 254.38 289.39 254.355 289.427 254.315C289.465 254.275 289.485 254.222 289.485 254.167L289.067 252.219H291.058C291.058 252.493 291.217 253.893 291.232 253.994C291.246 254.095 291.665 254.34 291.636 253.806C291.636 252.507 290.423 230.99 290.395 230.6C290.602 230.5 290.82 230.422 291.044 230.369C291.203 231.148 296.283 251.728 296.672 253.33C296.672 253.474 296.672 253.72 296.947 253.662C297.221 253.604 297.105 253.344 296.947 252.406L299.155 252.565V252.81C299.155 253.041 299.515 252.984 299.559 252.81C299.559 252.969 302.243 225.275 302.445 223.067C302.825 223.355 303.263 223.559 303.728 223.666C304.193 223.773 304.676 223.78 305.144 223.687C305.115 223.904 302.156 253.748 302.459 253.85H302.474ZM289.485 225.159C289.314 223.771 288.708 222.473 287.753 221.45C289.731 222.042 290.149 222.475 290.64 223.831C291.03 224.912 291.135 226.075 290.943 227.208C290.748 227.922 290.748 228.674 290.943 229.388C290.707 229.442 290.475 229.514 290.25 229.604C289.355 227.05 287.364 227.079 287.364 224.51C287.361 223.581 287.225 222.658 286.96 221.768C287.659 223.034 288.425 224.263 289.254 225.448C289.399 225.635 289.673 225.361 289.5 225.159H289.485ZM290.207 243.372C290.279 244.079 290.842 250.213 290.986 251.771H288.922C288.49 249.823 287.84 246.937 287.104 243.848L290.207 243.372ZM290.12 242.261L286.83 242.694C286.541 241.496 286.238 240.284 285.935 239.086C287.263 238.898 288.562 238.696 289.817 238.494C289.875 239.115 290.077 241.626 290.135 242.261H290.12ZM294.609 241.597C294.378 240.5 293.815 238.018 293.772 237.874C295.027 237.657 299.299 236.921 300.179 236.748C300.179 237.368 299.934 239.995 299.876 240.659C298.476 240.962 296.687 241.279 294.58 241.597H294.609ZM299.818 241.597C299.559 245.335 299.155 251.584 299.14 251.93C298.39 251.93 297.596 251.901 296.759 251.843C296.413 250.097 294.926 243.098 294.825 242.622C296.773 242.232 298.447 241.886 299.833 241.554L299.818 241.597ZM302.575 221.869C302.751 220.04 303.035 218.223 303.426 216.428C303.811 216.312 304.218 216.285 304.615 216.347C305.012 216.41 305.39 216.561 305.721 216.789C305.635 218.602 305.442 220.409 305.144 222.201C305.014 222.706 304.985 222.836 304.653 222.879C304.004 222.922 302.69 222.374 302.589 221.825L302.575 221.869ZM304.465 239.071C304.595 238.003 304.725 236.921 304.841 235.839C305.696 235.659 306.535 235.413 307.352 235.103C306.897 236.714 305.878 238.107 304.48 239.028L304.465 239.071ZM306.876 233.905C306.267 234.147 305.639 234.34 304.999 234.482C305.259 232.058 306.789 217.943 306.789 216.947C306.789 215.504 304.22 214.97 302.892 215.504C302.445 215.706 302.315 216.558 302.185 217.308C301.464 221.335 300.612 231.379 300.28 235.463L293.512 236.705C291.823 229.344 291.968 229.748 291.78 229.561C291.651 229.438 291.482 229.366 291.304 229.359C291.17 228.716 291.205 228.05 291.405 227.425C291.703 226.177 291.663 224.871 291.289 223.644C291.097 222.751 290.583 221.96 289.846 221.421C288.672 220.799 287.405 220.37 286.094 220.151C286.025 220.133 285.953 220.131 285.883 220.146C285.814 220.161 285.749 220.192 285.694 220.237C285.639 220.283 285.595 220.34 285.567 220.406C285.538 220.471 285.526 220.542 285.531 220.613C285.562 220.736 285.6 220.856 285.646 220.974C286.772 223.658 285.993 224.885 286.772 226.487C287.551 228.089 288.865 228.334 289.341 230.181C289.341 230.326 289.745 236.993 289.76 237.397L285.675 238.047C285.387 236.95 283.41 229.142 282.63 228.377C281.187 226.934 277.06 228.551 276.857 229.821C276.728 230.542 278.705 238.278 278.892 239.014C271.46 240.096 263.58 241.077 256.61 241.727C253.565 242.001 234.962 243.704 236.001 240.659C237.444 233.991 240.331 221.753 240.908 219.184V218.982C240.908 218.766 241.009 218.549 240.908 219.184C240.908 218.968 240.994 218.838 241.023 218.766L244.631 204.81C245.108 203.093 248.384 191.418 250.043 190.595C253.723 188.777 314.207 180.955 319.316 184.375C320.182 188.084 309.545 232.144 306.89 233.919L306.876 233.905Z" fill="#282A42"/>
<path d="M189.964 117.83V116.719C189.964 116.539 189.892 116.366 189.765 116.239C189.638 116.112 189.465 116.04 189.286 116.04C189.104 116.04 188.93 116.111 188.801 116.238C188.671 116.365 188.597 116.537 188.593 116.719V118.017C188.625 118.189 188.722 118.342 188.863 118.444C189.005 118.546 189.181 118.589 189.354 118.565C189.526 118.541 189.683 118.451 189.792 118.314C189.9 118.177 189.951 118.004 189.935 117.83H189.964ZM282.197 206.643C281.779 206.239 281.187 205.763 280.639 205.936C279.73 206.224 278.82 208.534 278.431 209.486C277.336 212.328 276.468 215.253 275.833 218.232C276.425 219.761 286.411 217.755 287.768 217.092C288.201 216.89 288.143 216.37 287.999 215.908C286.571 212.531 284.612 209.403 282.197 206.643ZM276.223 218.044C276.482 216.846 279.773 207.668 280.899 206.831C282.645 207.826 286.152 213.945 287.09 216.255C285.791 216.774 276.973 219.011 276.223 218.044ZM158.719 248.654C158.575 248.755 155.429 250.747 155.284 250.891C155.25 250.905 155.221 250.929 155.2 250.96C155.18 250.991 155.169 251.027 155.169 251.064C155.169 251.101 155.18 251.137 155.2 251.168C155.221 251.199 155.25 251.223 155.284 251.237C156.092 251.468 158.791 251.771 159.614 251.858C179.356 246.908 179.486 246.908 179.241 246.908C179.374 246.89 179.494 246.821 179.578 246.716C179.661 246.611 179.701 246.478 179.688 246.345C179.688 246.099 179.299 244.397 179.183 243.877L158.719 248.654ZM196.963 111.797C197.367 111.797 198.161 111.985 198.32 111.999C199.196 112.09 200.064 112.245 200.918 112.461L202.216 112.692C202.266 112.704 202.318 112.699 202.364 112.677C202.409 112.654 202.446 112.616 202.467 112.57C202.487 112.523 202.491 112.471 202.477 112.422C202.463 112.373 202.432 112.331 202.39 112.302C201.637 111.664 200.723 111.245 199.749 111.09C198.783 110.883 197.779 110.969 196.862 111.335C196.832 111.342 196.803 111.355 196.778 111.372C196.752 111.39 196.73 111.413 196.714 111.439C196.697 111.465 196.686 111.494 196.68 111.525C196.675 111.555 196.675 111.587 196.682 111.617C196.688 111.647 196.701 111.676 196.719 111.701C196.736 111.727 196.759 111.749 196.785 111.765C196.811 111.782 196.84 111.794 196.871 111.799C196.902 111.804 196.933 111.804 196.963 111.797ZM185.533 113.067C185.923 112.981 186.76 112.851 186.976 112.822C187.851 112.631 188.739 112.506 189.632 112.447L191.075 112.288C191.132 112.288 191.188 112.265 191.228 112.225C191.269 112.184 191.292 112.129 191.292 112.071C191.292 112.014 191.269 111.959 191.228 111.918C191.188 111.878 191.132 111.855 191.075 111.855C190.145 111.461 189.124 111.329 188.124 111.474C187.124 111.619 186.183 112.035 185.403 112.678C185.369 112.678 185.335 112.686 185.305 112.701C185.274 112.717 185.248 112.74 185.228 112.768C185.208 112.795 185.195 112.828 185.189 112.861C185.184 112.895 185.187 112.93 185.198 112.963C185.209 112.995 185.227 113.025 185.252 113.049C185.276 113.073 185.306 113.09 185.339 113.101C185.372 113.111 185.406 113.113 185.44 113.107C185.474 113.102 185.506 113.088 185.533 113.067ZM199.965 115.578C199.785 115.578 199.613 115.65 199.485 115.777C199.358 115.904 199.287 116.077 199.287 116.257V117.556C199.312 117.735 199.407 117.898 199.552 118.008C199.697 118.117 199.879 118.165 200.059 118.14C200.239 118.115 200.401 118.02 200.511 117.875C200.621 117.73 200.668 117.548 200.643 117.368V116.257C200.645 116.167 200.629 116.078 200.596 115.995C200.562 115.912 200.512 115.836 200.449 115.773C200.386 115.709 200.31 115.659 200.227 115.626C200.144 115.593 200.055 115.576 199.965 115.578ZM87.9599 240.875C89.9659 241.525 94.6418 243.271 96.7922 243.011C97.0519 243.011 97.3406 242.751 97.5282 242.289C98.9714 239.042 97.9323 222.532 97.4127 219.343C97.0519 217.048 88.7537 214.205 86.7476 215.836C85.4488 216.89 86.0982 229.113 86.2425 230.816C86.6178 234.929 86.2281 240.312 87.9599 240.875ZM87.3971 216.601C88.9557 215.475 96.186 218.145 96.4169 219.487C96.7777 221.753 98.1199 240.803 96.6767 242.289C94.815 242.564 89.8793 241.048 88.0176 240.471C86.7043 240.038 87.1517 234.294 86.9353 230.744C86.8342 228.348 86.6755 218.838 87.3971 216.601ZM189.949 126.474C189.913 126.457 189.874 126.447 189.834 126.447C189.794 126.447 189.754 126.457 189.718 126.474C189.358 126.604 189.141 127.008 189.083 127.6C189.037 129.129 189.55 130.622 190.527 131.8C190.756 132.112 191.045 132.375 191.378 132.574C191.711 132.772 192.08 132.901 192.464 132.954C192.848 133.006 193.238 132.981 193.612 132.879C193.986 132.778 194.335 132.602 194.64 132.363C195.51 131.647 196.193 130.731 196.631 129.693C196.671 129.612 196.691 129.523 196.691 129.433C196.691 129.343 196.671 129.254 196.631 129.173C196.184 128.48 195.116 129.462 189.949 126.474ZM189.819 126.965C191.387 128.3 193.223 129.284 195.203 129.851C192.114 135.105 189.011 128.019 189.819 126.965ZM193.355 123.574C194.279 123.747 196.833 123.429 197.382 122.491C197.656 122.044 197.382 121.9 196.776 120.052C196.229 118.447 195.589 116.876 194.856 115.347C194.596 114.943 194.264 115.347 194.452 115.593C194.853 117.805 195.492 119.968 196.357 122.044C195.313 122.533 194.243 122.966 193.153 123.343C193.151 123.371 193.155 123.4 193.164 123.427C193.173 123.454 193.188 123.479 193.206 123.5C193.225 123.522 193.248 123.539 193.273 123.552C193.299 123.564 193.327 123.572 193.355 123.574ZM246.58 273.65C251.992 270.215 247.778 267.054 244.198 268.555C243.318 266.953 243.116 266.824 241.312 266.91C231.946 267.386 189.646 277.171 189.242 277.33C187.106 278.21 192.533 290.953 194.683 292.628C195.174 293.003 195.015 293.075 200.311 292.036C200.658 295.182 202.029 300.695 205.233 300.868C206.726 300.595 208.18 300.139 209.562 299.512C212.239 302.174 215.088 304.657 218.091 306.944C221.411 309.166 242.625 284.387 245.8 281.501C246.71 281.198 247.518 280.996 247.417 278.744C250.159 278.239 252.28 276.551 250.823 274.126C249.841 272.654 248.138 272.885 246.58 273.65ZM247.085 269.724C247.677 269.941 247.98 270.172 247.792 270.763C247.403 271.668 246.833 272.483 246.118 273.159C245.735 271.985 245.287 270.834 244.776 269.71C245.523 269.441 246.341 269.446 247.085 269.724ZM231.729 269.248C232.263 271.774 232.624 273.145 233.302 275.468L223.301 277.359C222.726 275.271 222.057 273.21 221.295 271.182C223.186 270.821 230.185 269.508 231.729 269.248ZM216.937 288.515C217.466 290.328 218.248 292.057 219.26 293.652C216.489 294.994 213.877 296.221 211.655 297.231C210.857 294.811 209.736 292.51 208.321 290.391L216.937 288.515ZM212.853 288.515C212.365 286.007 211.748 283.526 211.005 281.082L222.551 278.585C223.18 281.03 223.942 283.439 224.831 285.801C220.862 286.638 216.72 287.576 212.853 288.457V288.515ZM217.658 288.587C217.5 288.356 216.518 288.702 227.14 286.263C227.328 287.336 227.725 288.361 228.309 289.279L219.852 293.421C219.35 291.697 218.612 290.051 217.658 288.529V288.587ZM227.761 286.104C233.245 284.834 238.281 283.622 241.759 282.699L229.016 288.919C228.78 287.894 228.36 286.921 227.775 286.047L227.761 286.104ZM225.322 285.657C224.859 283.195 224.271 280.757 223.561 278.355L233.418 275.93C233.418 276.002 234.082 278.225 234.385 279.177C234.529 279.61 235.756 283.103 235.828 283.16C232.841 283.824 225.553 285.542 225.307 285.599L225.322 285.657ZM220.862 271.326C221.339 273.953 221.786 275.656 222.305 277.618L210.76 280.158C210.082 277.864 209.62 276.363 208.624 273.765C210.875 273.246 219.13 271.6 220.877 271.269L220.862 271.326ZM208.148 273.852C208.711 276.738 209.129 278.253 209.735 280.389C208.768 280.606 200.874 282.583 200.874 282.583C200.586 282.583 200.701 283.03 200.99 282.973C200.99 282.973 209.548 281.385 209.981 281.284C209.981 281.284 210.601 283.766 212.376 288.63L203.068 290.708C201.736 285.674 200.063 280.736 198.06 275.93L208.148 273.852ZM195.087 292.137C192.893 290.492 187.871 278.369 189.387 277.705C189.387 277.705 192.691 276.984 197.656 275.944C198.893 281.002 200.544 285.95 202.592 290.737C195.001 292.44 195.332 292.267 195.102 292.079L195.087 292.137ZM205.189 299.815C202.75 299.815 201.293 294.547 200.86 292.151C200.86 291.877 200.095 292.151 207.643 290.578C208.018 290.506 207.426 290.405 209.23 294.157C209.748 295.336 210.386 296.458 211.135 297.506C209.237 298.415 207.268 299.168 205.247 299.757L205.189 299.815ZM218.64 305.991C215.706 303.935 212.887 301.719 210.197 299.353C212.679 298.328 215.494 297.015 217.918 295.86C219.816 298.067 221.967 300.043 224.326 301.748C223.345 302.585 220.011 305.674 218.697 305.934L218.64 305.991ZM224.744 301.315C222.838 299.188 220.704 297.276 218.38 295.615L227.443 291.156C228.706 292.452 230.168 293.538 231.773 294.374C229.503 296.722 227.179 299.018 224.802 301.258L224.744 301.315ZM232.263 293.912C231.06 292.683 229.69 291.629 228.194 290.78C234.399 287.649 237.964 285.744 243.751 282.54C241.182 284.806 234.659 291.473 232.321 293.854L232.263 293.912ZM246.031 280.346C245.411 280.794 236.91 282.872 236.174 283.045C235.255 278.323 233.908 273.696 232.148 269.219C234.948 268.743 240.49 267.776 242.553 268.007C242.832 268.335 243.074 268.693 243.275 269.075C242.29 269.744 241.475 270.633 240.894 271.673C240.749 272.033 241.124 272.221 241.312 272.048C242.034 271.284 242.878 270.645 243.809 270.157C244.464 271.51 245.032 272.903 245.512 274.328C244.229 275.205 243.074 276.254 242.077 277.445C241.889 277.676 241.947 277.849 242.077 277.922C242.423 278.124 242.452 277.604 245.858 275.584C246.202 276.752 246.396 277.96 246.435 279.177C246.363 279.437 246.32 280.101 246.089 280.288L246.031 280.346ZM249.625 276.478C248.98 277.217 248.169 277.791 247.258 278.152C247.125 277.124 246.918 276.106 246.637 275.107C247.576 274.631 249.033 274.025 249.524 274.905C249.709 275.108 249.824 275.364 249.852 275.637C249.881 275.91 249.821 276.184 249.683 276.421L249.625 276.478Z" fill="#282A42"/>
</svg>
