<svg width="133" height="32" viewBox="0 0 133 32" fill="none" xmlns="http://www.w3.org/2000/svg">
<rect x="0.174988" width="32" height="32" rx="8" fill="url(#paint0_linear_197_1463)"/>
<g clip-path="url(#clip0_197_1463)">
<path fill-rule="evenodd" clip-rule="evenodd" d="M16.1749 9.66033C16.1749 8.68831 15.387 7.90033 14.4149 7.90033H9.93493C8.96291 7.90033 8.17493 8.68831 8.17493 9.66033V14.1979C8.17493 15.1699 8.96291 15.9578 9.93493 15.9578H14.4149C15.387 15.9578 16.1749 16.7458 16.1749 17.7178V22.1403C16.1749 23.1123 16.9629 23.9003 17.9349 23.9003H22.4149C23.3869 23.9003 24.1749 23.1123 24.1749 22.1403V17.6027C24.1749 16.6307 23.3869 15.8428 22.4149 15.8428H17.9349C16.9629 15.8428 16.1749 15.0548 16.1749 14.0828V9.66033Z" fill="white"/>
</g>
<path d="M37.309 22V9.4H43.231C44.083 9.4 44.827 9.544 45.463 9.832C46.111 10.12 46.609 10.528 46.957 11.056C47.317 11.572 47.497 12.172 47.497 12.856C47.497 13.408 47.353 13.918 47.065 14.386C46.789 14.842 46.411 15.214 45.931 15.502C46.543 15.79 47.029 16.18 47.389 16.672C47.749 17.164 47.929 17.722 47.929 18.346C47.929 19.066 47.743 19.702 47.371 20.254C47.011 20.806 46.495 21.238 45.823 21.55C45.163 21.85 44.395 22 43.519 22H37.309ZM39.919 14.548H43.069C43.633 14.548 44.077 14.416 44.401 14.152C44.737 13.876 44.905 13.51 44.905 13.054C44.905 12.598 44.737 12.238 44.401 11.974C44.077 11.698 43.633 11.56 43.069 11.56H39.919V14.548ZM39.919 19.84H43.321C43.921 19.84 44.401 19.696 44.761 19.408C45.121 19.108 45.301 18.712 45.301 18.22C45.301 17.716 45.121 17.32 44.761 17.032C44.401 16.732 43.921 16.582 43.321 16.582H39.919V19.84ZM52.5125 22.18C51.7925 22.18 51.1505 22.024 50.5865 21.712C50.0345 21.388 49.5965 20.944 49.2725 20.38C48.9605 19.816 48.8045 19.168 48.8045 18.436V12.622H51.2705V18.076C51.2705 18.676 51.4445 19.156 51.7925 19.516C52.1525 19.876 52.6325 20.056 53.2325 20.056C53.6405 20.056 54.0065 19.978 54.3305 19.822C54.6665 19.654 54.9425 19.42 55.1585 19.12V12.622H57.6245V22H55.1585V21.244C54.4385 21.868 53.5565 22.18 52.5125 22.18ZM59.0064 22V12.622H61.4724V22H59.0064ZM60.2304 11.506C59.8464 11.506 59.5164 11.368 59.2404 11.092C58.9644 10.816 58.8264 10.486 58.8264 10.102C58.8264 9.706 58.9644 9.376 59.2404 9.112C59.5164 8.836 59.8464 8.698 60.2304 8.698C60.6264 8.698 60.9564 8.836 61.2204 9.112C61.4964 9.376 61.6344 9.706 61.6344 10.102C61.6344 10.486 61.4964 10.816 61.2204 11.092C60.9564 11.368 60.6264 11.506 60.2304 11.506ZM62.861 22V9.4L65.327 8.986V22H62.861ZM71.0535 22.126C70.1655 22.126 69.3615 21.91 68.6415 21.478C67.9215 21.046 67.3455 20.47 66.9135 19.75C66.4935 19.018 66.2835 18.202 66.2835 17.302C66.2835 16.402 66.4935 15.592 66.9135 14.872C67.3455 14.14 67.9275 13.564 68.6595 13.144C69.3915 12.712 70.2135 12.496 71.1255 12.496C71.5935 12.496 72.0435 12.562 72.4755 12.694C72.9075 12.814 73.3095 12.994 73.6815 13.234V9.4L76.1475 8.986V22H73.7175V21.226C72.9495 21.826 72.0615 22.126 71.0535 22.126ZM71.4495 20.02C71.9055 20.02 72.3195 19.942 72.6915 19.786C73.0755 19.63 73.4055 19.408 73.6815 19.12V15.466C73.4055 15.19 73.0755 14.974 72.6915 14.818C72.3075 14.662 71.8935 14.584 71.4495 14.584C70.9335 14.584 70.4655 14.704 70.0455 14.944C69.6375 15.172 69.3135 15.496 69.0735 15.916C68.8335 16.324 68.7135 16.786 68.7135 17.302C68.7135 17.818 68.8335 18.28 69.0735 18.688C69.3135 19.096 69.6375 19.42 70.0455 19.66C70.4655 19.9 70.9335 20.02 71.4495 20.02ZM82.1385 22.18C81.2025 22.18 80.3505 21.964 79.5825 21.532C78.8265 21.1 78.2265 20.518 77.7825 19.786C77.3385 19.054 77.1165 18.232 77.1165 17.32C77.1165 16.408 77.3265 15.586 77.7465 14.854C78.1785 14.122 78.7605 13.54 79.4925 13.108C80.2245 12.676 81.0405 12.46 81.9405 12.46C82.8405 12.46 83.6385 12.682 84.3345 13.126C85.0305 13.57 85.5765 14.17 85.9725 14.926C86.3806 15.682 86.5846 16.54 86.5846 17.5V18.148H79.6365C79.7445 18.52 79.9185 18.856 80.1585 19.156C80.4105 19.456 80.7165 19.69 81.0765 19.858C81.4485 20.026 81.8445 20.11 82.2645 20.11C82.6845 20.11 83.0685 20.044 83.4165 19.912C83.7765 19.78 84.0825 19.594 84.3345 19.354L85.9546 20.83C85.3785 21.298 84.7845 21.64 84.1725 21.856C83.5725 22.072 82.8945 22.18 82.1385 22.18ZM79.6005 16.384H84.1546C84.0706 16.012 83.9146 15.688 83.6865 15.412C83.4705 15.124 83.2065 14.902 82.8945 14.746C82.5945 14.578 82.2585 14.494 81.8865 14.494C81.5025 14.494 81.1545 14.572 80.8425 14.728C80.5425 14.884 80.2845 15.106 80.0685 15.394C79.8525 15.67 79.6965 16 79.6005 16.384ZM87.5554 22V12.622H90.0214V13.666C90.3214 13.258 90.6814 12.946 91.1014 12.73C91.5214 12.514 91.9954 12.406 92.5234 12.406C92.9794 12.418 93.3214 12.49 93.5494 12.622V14.782C93.3694 14.698 93.1714 14.638 92.9554 14.602C92.7394 14.554 92.5174 14.53 92.2894 14.53C91.8094 14.53 91.3714 14.65 90.9754 14.89C90.5794 15.13 90.2614 15.472 90.0214 15.916V22H87.5554ZM94.3631 22V9.4L96.8291 8.986V16.564L100.879 12.622H103.669L99.2411 16.924L103.939 22H100.789L96.8291 17.716V22H94.3631ZM104.054 22V12.622H106.52V22H104.054ZM105.278 11.506C104.894 11.506 104.564 11.368 104.288 11.092C104.012 10.816 103.874 10.486 103.874 10.102C103.874 9.706 104.012 9.376 104.288 9.112C104.564 8.836 104.894 8.698 105.278 8.698C105.674 8.698 106.004 8.836 106.268 9.112C106.544 9.376 106.682 9.706 106.682 10.102C106.682 10.486 106.544 10.816 106.268 11.092C106.004 11.368 105.674 11.506 105.278 11.506ZM112.354 22.144C111.31 22.144 110.518 21.91 109.978 21.442C109.45 20.962 109.186 20.266 109.186 19.354V14.674H107.26V12.622H109.186V10.228L111.652 9.67V12.622H114.334V14.674H111.652V18.85C111.652 19.282 111.748 19.594 111.94 19.786C112.132 19.966 112.468 20.056 112.948 20.056C113.188 20.056 113.404 20.044 113.596 20.02C113.8 19.984 114.022 19.924 114.262 19.84V21.874C114.01 21.958 113.698 22.024 113.326 22.072C112.954 22.12 112.63 22.144 112.354 22.144ZM116.275 22.18C115.879 22.18 115.537 22.036 115.249 21.748C114.961 21.46 114.817 21.118 114.817 20.722C114.817 20.314 114.961 19.966 115.249 19.678C115.537 19.39 115.879 19.246 116.275 19.246C116.671 19.246 117.013 19.39 117.301 19.678C117.589 19.966 117.733 20.314 117.733 20.722C117.733 21.118 117.589 21.46 117.301 21.748C117.013 22.036 116.671 22.18 116.275 22.18ZM121.91 22.162C121.238 22.162 120.644 22.042 120.128 21.802C119.612 21.55 119.21 21.208 118.922 20.776C118.634 20.344 118.49 19.846 118.49 19.282C118.49 18.382 118.826 17.686 119.498 17.194C120.182 16.69 121.118 16.438 122.306 16.438C123.122 16.438 123.89 16.564 124.61 16.816V16.132C124.61 15.592 124.442 15.184 124.106 14.908C123.77 14.632 123.278 14.494 122.63 14.494C122.234 14.494 121.808 14.56 121.352 14.692C120.896 14.812 120.368 15.004 119.768 15.268L118.868 13.45C119.612 13.114 120.32 12.862 120.992 12.694C121.676 12.526 122.36 12.442 123.044 12.442C124.304 12.442 125.282 12.748 125.978 13.36C126.686 13.96 127.04 14.812 127.04 15.916V22H124.61V21.334C124.226 21.622 123.812 21.832 123.368 21.964C122.924 22.096 122.438 22.162 121.91 22.162ZM120.83 19.228C120.83 19.588 120.986 19.876 121.298 20.092C121.61 20.296 122.024 20.398 122.54 20.398C122.948 20.398 123.326 20.35 123.674 20.254C124.022 20.146 124.334 19.99 124.61 19.786V18.418C124.31 18.298 123.998 18.208 123.674 18.148C123.35 18.088 123.002 18.058 122.63 18.058C122.066 18.058 121.622 18.166 121.298 18.382C120.986 18.586 120.83 18.868 120.83 19.228ZM128.366 22V12.622H130.832V22H128.366ZM129.59 11.506C129.206 11.506 128.876 11.368 128.6 11.092C128.324 10.816 128.186 10.486 128.186 10.102C128.186 9.706 128.324 9.376 128.6 9.112C128.876 8.836 129.206 8.698 129.59 8.698C129.986 8.698 130.316 8.836 130.58 9.112C130.856 9.376 130.994 9.706 130.994 10.102C130.994 10.486 130.856 10.816 130.58 11.092C130.316 11.368 129.986 11.506 129.59 11.506Z" fill="white"/>
<defs>
<linearGradient id="paint0_linear_197_1463" x1="16.175" y1="0" x2="16.175" y2="32" gradientUnits="userSpaceOnUse">
<stop stop-color="#6271E6"/>
<stop offset="1" stop-color="#21285D"/>
</linearGradient>
<clipPath id="clip0_197_1463">
<rect width="16" height="16" fill="white" transform="translate(8.17493 7.90033)"/>
</clipPath>
</defs>
</svg>
