<svg width="122" height="32" viewBox="0 0 122 32" fill="none" xmlns="http://www.w3.org/2000/svg">
<g clip-path="url(#clip0_234_2860)">
<path d="M0 29.0369C0 30.7812 1.33537 31.9126 3.39387 31.9126L13.3101 31.9127C19.2256 31.9127 24.0648 30.2168 27.3547 27.2478H0V29.0369ZM13.3101 0.000211921L3.39387 0C1.33537 0 0 1.13144 0 2.87576V4.66501H27.3547C24.0648 1.696 19.2257 0.000211921 13.3101 0.000211921ZM21.9639 20.5035C21.9639 21.9147 23.0489 22.8303 24.7214 22.8303H30.6634C31.337 21.4139 31.7896 19.8571 31.9999 18.1767H24.7215C23.0487 18.1767 21.964 19.0922 21.964 20.5035M13.728 11.4207C13.728 12.8321 14.813 13.7475 16.4855 13.7475H32C31.7896 12.0673 31.3371 10.5102 30.6635 9.09393H16.4856C14.8129 9.09393 13.728 10.0094 13.728 11.4207ZM16.4839 20.5035C16.4839 19.0921 15.3989 18.1767 13.7262 18.1767H0V22.8303H13.7261C15.3987 22.8303 16.4836 21.9148 16.4836 20.5034M8.24763 11.4206C8.24763 10.0092 7.16262 9.09383 5.49 9.09383H0V13.7474H5.49C7.16275 13.7474 8.24763 12.8319 8.24763 11.4206Z" fill="#DDDDDD"/>
</g>
<path d="M53.7781 23H49.342V9.90909H53.8675C55.1673 9.90909 56.2837 10.1712 57.217 10.6953C58.1545 11.2152 58.8746 11.9631 59.3775 12.9389C59.8803 13.9148 60.1317 15.0824 60.1317 16.4418C60.1317 17.8054 59.8782 18.9773 59.3711 19.9574C58.8683 20.9375 58.1417 21.6896 57.1914 22.2138C56.2454 22.7379 55.1076 23 53.7781 23ZM51.7134 20.9482H53.663C54.5749 20.9482 55.3356 20.782 55.945 20.4496C56.5543 20.1129 57.0124 19.6122 57.3192 18.9474C57.6261 18.2784 57.7795 17.4432 57.7795 16.4418C57.7795 15.4403 57.6261 14.6094 57.3192 13.9489C57.0124 13.2841 56.5586 12.7876 55.9577 12.4595C55.3612 12.1271 54.6197 11.9609 53.7333 11.9609H51.7134V20.9482ZM66.6293 23.1918C65.6449 23.1918 64.7947 22.9872 64.0788 22.5781C63.3672 22.1648 62.8196 21.581 62.4361 20.8267C62.0526 20.0682 61.8608 19.1754 61.8608 18.1484C61.8608 17.1385 62.0526 16.2521 62.4361 15.4893C62.8239 14.7223 63.3651 14.1257 64.0597 13.6996C64.7543 13.2692 65.5703 13.054 66.5078 13.054C67.1129 13.054 67.6839 13.152 68.2209 13.348C68.7621 13.5398 69.2393 13.8381 69.6527 14.2429C70.0703 14.6477 70.3984 15.1634 70.6371 15.7898C70.8757 16.4119 70.995 17.1534 70.995 18.0142V18.7237H62.9474V17.1641H68.777C68.7727 16.7209 68.6768 16.3267 68.4893 15.9815C68.3018 15.6321 68.0398 15.3572 67.7031 15.157C67.3707 14.9567 66.983 14.8565 66.5398 14.8565C66.0668 14.8565 65.6513 14.9716 65.2933 15.2017C64.9354 15.4276 64.6563 15.7259 64.456 16.0966C64.2599 16.4631 64.1598 16.8658 64.1555 17.3047V18.6662C64.1555 19.2372 64.2599 19.7273 64.4688 20.1364C64.6776 20.5412 64.9695 20.8523 65.3445 21.0696C65.7195 21.2827 66.1584 21.3892 66.6612 21.3892C66.9979 21.3892 67.3026 21.3423 67.5753 21.2486C67.848 21.1506 68.0845 21.0078 68.2848 20.8203C68.4851 20.6328 68.6364 20.4006 68.7386 20.1236L70.8991 20.3665C70.7628 20.9375 70.5028 21.4361 70.1193 21.8622C69.7401 22.2841 69.2543 22.6122 68.6619 22.8466C68.0696 23.0767 67.392 23.1918 66.6293 23.1918ZM80.7125 15.777L78.6032 16.0071C78.5435 15.794 78.4391 15.5938 78.29 15.4062C78.1451 15.2188 77.949 15.0675 77.7019 14.9524C77.4547 14.8374 77.1522 14.7798 76.7942 14.7798C76.3127 14.7798 75.9078 14.8842 75.5797 15.093C75.2559 15.3018 75.0961 15.5724 75.1003 15.9048C75.0961 16.1903 75.2005 16.4226 75.4135 16.6016C75.6309 16.7805 75.9888 16.9276 76.4874 17.0426L78.1621 17.4006C79.0911 17.6009 79.7814 17.9183 80.2331 18.353C80.6891 18.7876 80.9192 19.3565 80.9235 20.0597C80.9192 20.6776 80.7381 21.223 80.3801 21.696C80.0265 22.1648 79.5343 22.5312 78.9036 22.7955C78.2729 23.0597 77.5485 23.1918 76.7303 23.1918C75.5286 23.1918 74.5613 22.9403 73.8283 22.4375C73.0953 21.9304 72.6586 21.2251 72.5179 20.3217L74.7743 20.1044C74.8766 20.5476 75.0939 20.8821 75.4263 21.108C75.7587 21.3338 76.1912 21.4467 76.7239 21.4467C77.2736 21.4467 77.7147 21.3338 78.0471 21.108C78.3837 20.8821 78.552 20.603 78.552 20.2706C78.552 19.9893 78.4434 19.7571 78.226 19.5739C78.013 19.3906 77.6806 19.25 77.2289 19.152L75.5542 18.8004C74.6124 18.6044 73.9157 18.2741 73.464 17.8097C73.0123 17.3409 72.7885 16.7486 72.7928 16.0327C72.7885 15.4276 72.9526 14.9034 73.285 14.4602C73.6216 14.0128 74.0882 13.6676 74.6848 13.4247C75.2857 13.1776 75.9782 13.054 76.7623 13.054C77.9128 13.054 78.8184 13.299 79.4789 13.7891C80.1436 14.2791 80.5549 14.9418 80.7125 15.777ZM87.1142 23.1918C86.1341 23.1918 85.2924 22.9766 84.5893 22.5462C83.8904 22.1158 83.3514 21.5213 82.9721 20.7628C82.5971 20 82.4096 19.1222 82.4096 18.1293C82.4096 17.1321 82.6014 16.2521 82.9849 15.4893C83.3684 14.7223 83.9096 14.1257 84.6085 13.6996C85.3116 13.2692 86.1426 13.054 87.1014 13.054C87.8983 13.054 88.6035 13.201 89.2172 13.495C89.8351 13.7848 90.3272 14.196 90.6937 14.7287C91.0602 15.2571 91.269 15.875 91.3201 16.5824H89.1085C89.019 16.1094 88.8059 15.7152 88.4693 15.3999C88.1369 15.0803 87.6916 14.9205 87.1333 14.9205C86.6603 14.9205 86.2449 15.0483 85.8869 15.304C85.5289 15.5554 85.2498 15.9176 85.0495 16.3906C84.8535 16.8636 84.7555 17.4304 84.7555 18.0909C84.7555 18.7599 84.8535 19.3352 85.0495 19.8168C85.2456 20.294 85.5204 20.6626 85.8741 20.9226C86.2321 21.1783 86.6518 21.3061 87.1333 21.3061C87.4743 21.3061 87.7789 21.2422 88.0474 21.1143C88.3201 20.9822 88.5481 20.7926 88.7314 20.5455C88.9146 20.2983 89.0403 19.9979 89.1085 19.6442H91.3201C91.2647 20.3388 91.0602 20.9545 90.7065 21.4915C90.3528 22.0241 89.8713 22.4418 89.2619 22.7443C88.6525 23.0426 87.9366 23.1918 87.1142 23.1918ZM93.2202 23V13.1818H95.4638V14.8182H95.5661C95.745 14.2514 96.0518 13.8146 96.4865 13.5078C96.9254 13.1967 97.4261 13.0412 97.9886 13.0412C98.1165 13.0412 98.2592 13.0476 98.4169 13.0604C98.5788 13.0689 98.7131 13.0838 98.8196 13.1051V15.2337C98.7216 15.1996 98.5661 15.1697 98.353 15.1442C98.1442 15.1143 97.9418 15.0994 97.7457 15.0994C97.3239 15.0994 96.9446 15.1911 96.608 15.3743C96.2756 15.5533 96.0135 15.8026 95.8217 16.1222C95.63 16.4418 95.5341 16.8104 95.5341 17.228V23H93.2202ZM100.357 23V13.1818H102.671V23H100.357ZM101.52 11.7884C101.154 11.7884 100.838 11.6669 100.574 11.424C100.31 11.1768 100.178 10.8807 100.178 10.5355C100.178 10.1861 100.31 9.88991 100.574 9.64702C100.838 9.39986 101.154 9.27628 101.52 9.27628C101.891 9.27628 102.206 9.39986 102.466 9.64702C102.73 9.88991 102.863 10.1861 102.863 10.5355C102.863 10.8807 102.73 11.1768 102.466 11.424C102.206 11.6669 101.891 11.7884 101.52 11.7884ZM105.05 26.6818V13.1818H107.326V14.8054H107.46C107.579 14.5668 107.748 14.3132 107.965 14.0447C108.182 13.772 108.476 13.5398 108.847 13.348C109.218 13.152 109.691 13.054 110.266 13.054C111.025 13.054 111.709 13.2479 112.318 13.6357C112.932 14.0192 113.417 14.5881 113.775 15.3423C114.138 16.0923 114.319 17.0128 114.319 18.1037C114.319 19.1818 114.142 20.098 113.788 20.8523C113.434 21.6065 112.953 22.1818 112.344 22.5781C111.734 22.9744 111.044 23.1726 110.273 23.1726C109.71 23.1726 109.243 23.0788 108.873 22.8913C108.502 22.7038 108.204 22.478 107.978 22.2138C107.756 21.9453 107.584 21.6918 107.46 21.4531H107.364V26.6818H105.05ZM107.319 18.0909C107.319 18.7259 107.409 19.282 107.588 19.7592C107.771 20.2365 108.033 20.6094 108.374 20.8778C108.719 21.142 109.137 21.2741 109.627 21.2741C110.138 21.2741 110.567 21.1378 110.912 20.8651C111.257 20.5881 111.517 20.2109 111.692 19.7337C111.871 19.2521 111.96 18.7045 111.96 18.0909C111.96 17.4815 111.873 16.9403 111.698 16.4673C111.523 15.9943 111.263 15.6236 110.918 15.3551C110.573 15.0866 110.143 14.9524 109.627 14.9524C109.133 14.9524 108.713 15.0824 108.368 15.3423C108.023 15.6023 107.76 15.9666 107.581 16.4354C107.407 16.9041 107.319 17.456 107.319 18.0909ZM121.203 13.1818V14.9716H115.559V13.1818H121.203ZM116.952 10.8295H119.266V20.0469C119.266 20.358 119.313 20.5966 119.407 20.7628C119.505 20.9247 119.633 21.0355 119.79 21.0952C119.948 21.1548 120.123 21.1847 120.314 21.1847C120.459 21.1847 120.591 21.174 120.711 21.1527C120.834 21.1314 120.928 21.1122 120.992 21.0952L121.382 22.9041C121.258 22.9467 121.081 22.9936 120.851 23.0447C120.626 23.0959 120.349 23.1257 120.02 23.1342C119.441 23.1513 118.919 23.0639 118.454 22.8722C117.99 22.6761 117.621 22.3736 117.349 21.9645C117.08 21.5554 116.948 21.044 116.952 20.4304V10.8295Z" fill="#DDDDDD"/>
<defs>
<clipPath id="clip0_234_2860">
<rect width="32" height="32" fill="white"/>
</clipPath>
</defs>
</svg>
