<svg width="144" height="32" viewBox="0 0 144 32" fill="none" xmlns="http://www.w3.org/2000/svg">
<g clip-path="url(#clip0_234_2864)">
<path d="M16 0C24.837 0 32 7.1421 32 15.9533C32 24.4937 25.2695 31.4671 16.808 31.8867H15.192C6.73113 31.4671 0 24.4938 0 15.9533C0 7.1421 7.16375 0 16 0Z" fill="#DDDDDD"/>
<path d="M15.358 6.5997C18.9509 6.35976 22.146 8.13059 23.9241 10.8982C24.2054 11.381 24.0689 11.9949 23.6015 12.318C23.109 12.6587 22.461 12.5085 22.0906 11.9886C20.806 10.1858 18.5635 8.69451 16.007 8.69451C11.1019 8.69451 7.33786 13.6012 9.31473 18.7403C10.1856 21.0043 12.2497 22.6251 14.6526 23.0014C17.6042 23.4631 20.3039 22.4164 21.8587 20.142L20.8871 20.278H19.2105C18.6782 20.278 18.1857 19.92 18.091 19.398C17.9666 18.7126 18.4917 18.1155 19.1567 18.1155H25.0435V24.272C25.0436 24.431 25.0084 24.5881 24.9406 24.732C24.8728 24.8759 24.774 25.0031 24.6511 25.1047C24.5283 25.2062 24.3845 25.2795 24.23 25.3194C24.0755 25.3592 23.9141 25.3646 23.7572 25.3353C23.2335 25.2409 22.8751 24.7493 22.8751 24.2191V23.1911L23.0789 22.0538C21.3572 24.0367 18.8297 25.2625 16.007 25.2625C10.6331 25.2625 6.31211 20.8281 6.62486 15.397C6.89373 10.7296 10.6799 6.91272 15.358 6.5997Z" fill="white"/>
</g>
<path d="M58.1958 14.0895C58.0893 13.7443 57.9423 13.4354 57.7548 13.1626C57.5716 12.8857 57.35 12.6491 57.09 12.4531C56.8343 12.2571 56.5403 12.1101 56.2079 12.0121C55.8755 11.9098 55.5133 11.8587 55.1213 11.8587C54.4181 11.8587 53.7917 12.0355 53.242 12.3892C52.6923 12.7429 52.2598 13.2628 51.9444 13.9489C51.6333 14.6307 51.4778 15.4616 51.4778 16.4418C51.4778 17.4304 51.6333 18.2678 51.9444 18.9538C52.2555 19.6399 52.688 20.1619 53.242 20.5199C53.796 20.8736 54.4395 21.0504 55.1724 21.0504C55.8372 21.0504 56.4125 20.9226 56.8983 20.6669C57.3883 20.4112 57.7654 20.049 58.0297 19.5803C58.2939 19.1072 58.426 18.5533 58.426 17.9183L58.9629 18.0014H55.4089V16.1477H60.7207V17.7202C60.7207 18.8409 60.4821 19.8104 60.0048 20.6286C59.5275 21.4467 58.8713 22.0774 58.036 22.5206C57.2008 22.9595 56.242 23.179 55.1596 23.179C53.9537 23.179 52.8947 22.9084 51.9828 22.3672C51.0751 21.8217 50.3656 21.0483 49.8542 20.0469C49.3471 19.0412 49.0936 17.848 49.0936 16.4673C49.0936 15.4105 49.2427 14.4666 49.541 13.6357C49.8436 12.8047 50.2654 12.0994 50.8066 11.5199C51.3478 10.9361 51.9828 10.4929 52.7115 10.1903C53.4402 9.88352 54.2328 9.73011 55.0893 9.73011C55.8137 9.73011 56.4892 9.83665 57.1156 10.0497C57.742 10.2585 58.2981 10.5568 58.7839 10.9446C59.274 11.3324 59.6767 11.7926 59.992 12.3253C60.3074 12.858 60.514 13.446 60.612 14.0895H58.1958ZM62.9116 23V13.1818H65.1552V14.8182H65.2575C65.4364 14.2514 65.7433 13.8146 66.1779 13.5078C66.6168 13.1967 67.1175 13.0412 67.68 13.0412C67.8079 13.0412 67.9506 13.0476 68.1083 13.0604C68.2702 13.0689 68.4045 13.0838 68.511 13.1051V15.2337C68.413 15.1996 68.2575 15.1697 68.0444 15.1442C67.8356 15.1143 67.6332 15.0994 67.4371 15.0994C67.0153 15.0994 66.636 15.1911 66.2994 15.3743C65.967 15.5533 65.7049 15.8026 65.5131 16.1222C65.3214 16.4418 65.2255 16.8104 65.2255 17.228V23H62.9116ZM72.6978 23.1982C72.0756 23.1982 71.5153 23.0874 71.0167 22.8658C70.5224 22.6399 70.1303 22.3075 69.8406 21.8686C69.555 21.4297 69.4123 20.8885 69.4123 20.245C69.4123 19.6911 69.5146 19.233 69.7191 18.8707C69.9237 18.5085 70.2028 18.2188 70.5565 18.0014C70.9102 17.7841 71.3086 17.62 71.7518 17.5092C72.1992 17.3942 72.6616 17.3111 73.1388 17.2599C73.7141 17.2003 74.1808 17.147 74.5387 17.1001C74.8967 17.049 75.1566 16.9723 75.3185 16.87C75.4847 16.7635 75.5678 16.5994 75.5678 16.3778V16.3395C75.5678 15.858 75.4251 15.4851 75.1396 15.2209C74.854 14.9567 74.4428 14.8246 73.9059 14.8246C73.3391 14.8246 72.8896 14.9482 72.5572 15.1953C72.229 15.4425 72.0075 15.7344 71.8924 16.071L69.7319 15.7642C69.9023 15.1676 70.1836 14.669 70.5756 14.2685C70.9677 13.8636 71.4471 13.5611 72.0138 13.3608C72.5806 13.1562 73.207 13.054 73.8931 13.054C74.3661 13.054 74.837 13.1094 75.3058 13.2202C75.7745 13.331 76.2028 13.5142 76.5906 13.7699C76.9783 14.0213 77.2894 14.3643 77.5238 14.799C77.7624 15.2337 77.8817 15.777 77.8817 16.429V23H75.6573V21.6513H75.5806C75.44 21.924 75.2418 22.1797 74.9862 22.4183C74.7347 22.6527 74.4173 22.8423 74.0337 22.9872C73.6545 23.1278 73.2092 23.1982 72.6978 23.1982ZM73.2987 21.4979C73.7631 21.4979 74.1658 21.4062 74.5067 21.223C74.8477 21.0355 75.1097 20.7884 75.293 20.4815C75.4805 20.1747 75.5742 19.8402 75.5742 19.478V18.321C75.5018 18.3807 75.3782 18.4361 75.2035 18.4872C75.033 18.5384 74.8413 18.5831 74.6282 18.6214C74.4151 18.6598 74.2042 18.6939 73.9954 18.7237C73.7866 18.7536 73.6055 18.7791 73.4521 18.8004C73.1069 18.8473 72.7979 18.924 72.5252 19.0305C72.2525 19.1371 72.0373 19.2862 71.8796 19.478C71.7219 19.6655 71.6431 19.9084 71.6431 20.2067C71.6431 20.6328 71.7987 20.9545 72.1097 21.1719C72.4208 21.3892 72.8171 21.4979 73.2987 21.4979ZM80.2085 23V13.1818H82.4201V14.8501H82.5352C82.7397 14.2876 83.0785 13.8487 83.5515 13.5334C84.0245 13.2138 84.5891 13.054 85.2454 13.054C85.9102 13.054 86.4705 13.2159 86.9265 13.5398C87.3867 13.8594 87.7106 14.2962 87.8981 14.8501H88.0004C88.2177 14.3047 88.5842 13.87 89.0998 13.5462C89.6197 13.218 90.2354 13.054 90.9471 13.054C91.8505 13.054 92.5877 13.3395 93.1587 13.9105C93.7298 14.4815 94.0153 15.3146 94.0153 16.4098V23H91.695V16.7678C91.695 16.1584 91.533 15.7131 91.2092 15.4318C90.8853 15.1463 90.489 15.0036 90.0202 15.0036C89.462 15.0036 89.0252 15.1783 88.7099 15.5277C88.3988 15.8729 88.2433 16.3224 88.2433 16.8764V23H85.9741V16.6719C85.9741 16.1648 85.8207 15.7599 85.5138 15.4574C85.2113 15.1548 84.815 15.0036 84.3249 15.0036C83.9925 15.0036 83.69 15.0888 83.4173 15.2592C83.1445 15.4254 82.9272 15.6619 82.7653 15.9688C82.6033 16.2713 82.5224 16.625 82.5224 17.0298V23H80.2085ZM96.3627 23V13.1818H98.5744V14.8501H98.6895C98.894 14.2876 99.2328 13.8487 99.7058 13.5334C100.179 13.2138 100.743 13.054 101.4 13.054C102.064 13.054 102.625 13.2159 103.081 13.5398C103.541 13.8594 103.865 14.2962 104.052 14.8501H104.155C104.372 14.3047 104.738 13.87 105.254 13.5462C105.774 13.218 106.39 13.054 107.101 13.054C108.005 13.054 108.742 13.3395 109.313 13.9105C109.884 14.4815 110.17 15.3146 110.17 16.4098V23H107.849V16.7678C107.849 16.1584 107.687 15.7131 107.363 15.4318C107.04 15.1463 106.643 15.0036 106.175 15.0036C105.616 15.0036 105.18 15.1783 104.864 15.5277C104.553 15.8729 104.398 16.3224 104.398 16.8764V23H102.128V16.6719C102.128 16.1648 101.975 15.7599 101.668 15.4574C101.366 15.1548 100.969 15.0036 100.479 15.0036C100.147 15.0036 99.8443 15.0888 99.5716 15.2592C99.2988 15.4254 99.0815 15.6619 98.9196 15.9688C98.7576 16.2713 98.6767 16.625 98.6767 17.0298V23H96.3627ZM115.342 23.1982C114.72 23.1982 114.16 23.0874 113.661 22.8658C113.167 22.6399 112.775 22.3075 112.485 21.8686C112.2 21.4297 112.057 20.8885 112.057 20.245C112.057 19.6911 112.159 19.233 112.364 18.8707C112.568 18.5085 112.847 18.2188 113.201 18.0014C113.555 17.7841 113.953 17.62 114.396 17.5092C114.844 17.3942 115.306 17.3111 115.783 17.2599C116.359 17.2003 116.825 17.147 117.183 17.1001C117.541 17.049 117.801 16.9723 117.963 16.87C118.129 16.7635 118.212 16.5994 118.212 16.3778V16.3395C118.212 15.858 118.07 15.4851 117.784 15.2209C117.499 14.9567 117.087 14.8246 116.55 14.8246C115.984 14.8246 115.534 14.9482 115.202 15.1953C114.874 15.4425 114.652 15.7344 114.537 16.071L112.376 15.7642C112.547 15.1676 112.828 14.669 113.22 14.2685C113.612 13.8636 114.092 13.5611 114.658 13.3608C115.225 13.1562 115.852 13.054 116.538 13.054C117.011 13.054 117.482 13.1094 117.95 13.2202C118.419 13.331 118.847 13.5142 119.235 13.7699C119.623 14.0213 119.934 14.3643 120.168 14.799C120.407 15.2337 120.526 15.777 120.526 16.429V23H118.302V21.6513H118.225C118.085 21.924 117.886 22.1797 117.631 22.4183C117.379 22.6527 117.062 22.8423 116.678 22.9872C116.299 23.1278 115.854 23.1982 115.342 23.1982ZM115.943 21.4979C116.408 21.4979 116.81 21.4062 117.151 21.223C117.492 21.0355 117.754 20.7884 117.938 20.4815C118.125 20.1747 118.219 19.8402 118.219 19.478V18.321C118.146 18.3807 118.023 18.4361 117.848 18.4872C117.678 18.5384 117.486 18.5831 117.273 18.6214C117.06 18.6598 116.849 18.6939 116.64 18.7237C116.431 18.7536 116.25 18.7791 116.097 18.8004C115.751 18.8473 115.442 18.924 115.17 19.0305C114.897 19.1371 114.682 19.2862 114.524 19.478C114.366 19.6655 114.288 19.9084 114.288 20.2067C114.288 20.6328 114.443 20.9545 114.754 21.1719C115.065 21.3892 115.462 21.4979 115.943 21.4979ZM122.853 23V13.1818H125.097V14.8182H125.199C125.378 14.2514 125.685 13.8146 126.119 13.5078C126.558 13.1967 127.059 13.0412 127.621 13.0412C127.749 13.0412 127.892 13.0476 128.05 13.0604C128.212 13.0689 128.346 13.0838 128.452 13.1051V15.2337C128.354 15.1996 128.199 15.1697 127.986 15.1442C127.777 15.1143 127.575 15.0994 127.379 15.0994C126.957 15.0994 126.577 15.1911 126.241 15.3743C125.908 15.5533 125.646 15.8026 125.455 16.1222C125.263 16.4418 125.167 16.8104 125.167 17.228V23H122.853ZM132.304 9.90909V23H129.99V9.90909H132.304ZM136.121 26.6818C135.806 26.6818 135.514 26.6563 135.246 26.6051C134.981 26.5582 134.77 26.5028 134.613 26.4389L135.15 24.6364C135.486 24.7344 135.787 24.7813 136.051 24.777C136.315 24.7727 136.547 24.6896 136.748 24.5277C136.952 24.37 137.125 24.1058 137.265 23.7351L137.464 23.2045L133.903 13.1818H136.358L138.621 20.5966H138.723L140.992 13.1818H143.453L139.522 24.1889C139.339 24.7088 139.096 25.1541 138.793 25.5249C138.491 25.8999 138.12 26.1854 137.681 26.3814C137.246 26.5817 136.726 26.6818 136.121 26.6818Z" fill="#DDDDDD"/>
<defs>
<clipPath id="clip0_234_2864">
<rect width="32" height="32" fill="white"/>
</clipPath>
</defs>
</svg>
