<svg width="126" height="32" viewBox="0 0 126 32" fill="none" xmlns="http://www.w3.org/2000/svg">
<path d="M25.9998 2.66669H5.99984C5.11578 2.66669 4.26794 3.01788 3.64281 3.643C3.01769 4.26812 2.6665 5.11597 2.6665 6.00002V26C2.6665 26.8841 3.01769 27.7319 3.64281 28.357C4.26794 28.9822 5.11578 29.3334 5.99984 29.3334H25.9998C26.8839 29.3334 27.7317 28.9822 28.3569 28.357C28.982 27.7319 29.3332 26.8841 29.3332 26V6.00002C29.3332 5.11597 28.982 4.26812 28.3569 3.643C27.7317 3.01788 26.8839 2.66669 25.9998 2.66669ZM19.5598 7.56002C19.558 7.44221 19.5799 7.32524 19.6242 7.21604C19.6684 7.10684 19.7342 7.00764 19.8175 6.92433C19.9008 6.84102 20 6.77528 20.1092 6.73102C20.2184 6.68677 20.3354 6.66489 20.4532 6.66669C20.6844 6.67339 20.9044 6.76826 21.068 6.93186C21.2316 7.09546 21.3265 7.31542 21.3332 7.54669V19.4134C21.3066 19.6298 21.2017 19.829 21.0384 19.9735C20.8751 20.118 20.6646 20.1978 20.4465 20.1978C20.2284 20.1978 20.0179 20.118 19.8546 19.9735C19.6913 19.829 19.5864 19.6298 19.5598 19.4134V7.56002ZM15.1065 7.10669C15.1065 6.86976 15.2006 6.64254 15.3682 6.475C15.5357 6.30747 15.7629 6.21335 15.9998 6.21335C16.2368 6.21335 16.464 6.30747 16.6315 6.475C16.7991 6.64254 16.8932 6.86976 16.8932 7.10669V20C16.8932 20.2369 16.7991 20.4642 16.6315 20.6317C16.464 20.7992 16.2368 20.8934 15.9998 20.8934C15.7629 20.8934 15.5357 20.7992 15.3682 20.6317C15.2006 20.4642 15.1065 20.2369 15.1065 20V7.10669ZM10.6665 7.56002C10.6931 7.34359 10.7979 7.14435 10.9613 6.99987C11.1246 6.85538 11.3351 6.77562 11.5532 6.77562C11.7712 6.77562 11.9818 6.85538 12.1451 6.99987C12.3084 7.14435 12.4132 7.34359 12.4398 7.56002V19.4267C12.4398 19.5434 12.4167 19.6589 12.3716 19.7666C12.3265 19.8742 12.2605 19.9718 12.1774 20.0537C12.0943 20.1356 11.9957 20.2001 11.8874 20.2436C11.779 20.287 11.6632 20.3085 11.5465 20.3067C11.3152 20.3 11.0953 20.2051 10.9317 20.0415C10.7681 19.8779 10.6732 19.658 10.6665 19.4267V7.56002ZM6.2265 9.33335C6.25309 9.11692 6.35793 8.91768 6.52125 8.7732C6.68458 8.62871 6.89511 8.54895 7.11317 8.54895C7.33123 8.54895 7.54176 8.62871 7.70509 8.7732C7.86841 8.91768 7.97325 9.11692 7.99984 9.33335V17.3334C7.99634 17.568 7.90067 17.7918 7.73352 17.9564C7.56636 18.1211 7.34114 18.2134 7.1065 18.2134C6.87419 18.2099 6.65235 18.1161 6.48806 17.9518C6.32376 17.7875 6.22995 17.5657 6.2265 17.3334V9.33335ZM25.4665 22.8934C22.7252 24.8917 19.3896 25.9065 15.9998 25.7734C12.61 25.9065 9.27451 24.8917 6.53317 22.8934C6.39396 22.7306 6.31788 22.5232 6.31879 22.309C6.3197 22.0948 6.39755 21.888 6.53815 21.7264C6.67874 21.5648 6.87272 21.4591 7.08473 21.4286C7.29675 21.398 7.51268 21.4447 7.69317 21.56C10.1223 23.2565 13.0391 24.1133 15.9998 24C18.9627 24.1143 21.8811 23.2524 24.3065 21.5467C24.487 21.4313 24.7029 21.3847 24.9149 21.4152C25.127 21.4458 25.3209 21.5515 25.4615 21.7131C25.6021 21.8747 25.68 22.0814 25.6809 22.2956C25.6818 22.5098 25.6057 22.7172 25.4665 22.88V22.8934ZM25.7732 17.3334C25.7466 17.5498 25.6417 17.749 25.4784 17.8935C25.3151 18.038 25.1046 18.1178 24.8865 18.1178C24.6684 18.1178 24.4579 18.038 24.2946 17.8935C24.1313 17.749 24.0264 17.5498 23.9998 17.3334V9.33335C24.0033 9.09874 24.099 8.87493 24.2662 8.71027C24.4333 8.54561 24.6585 8.45333 24.8932 8.45335C25.1266 8.45335 25.3504 8.54607 25.5154 8.7111C25.6805 8.87613 25.7732 9.09996 25.7732 9.33335V17.3334Z" fill="#DDDDDD"/>
<path d="M51.8941 9.90909V23H49.5226V9.90909H51.8941ZM56.6737 17.2472V23H54.3598V13.1818H56.5715V14.8501H56.6865C56.9124 14.3004 57.2725 13.8636 57.7668 13.5398C58.2654 13.2159 58.8811 13.054 59.6141 13.054C60.2916 13.054 60.8818 13.1989 61.3847 13.4886C61.8918 13.7784 62.2838 14.1982 62.5608 14.7479C62.8421 15.2976 62.9806 15.9645 62.9763 16.7486V23H60.6624V17.1065C60.6624 16.4503 60.4919 15.9368 60.151 15.5661C59.8144 15.1953 59.3477 15.0099 58.7512 15.0099C58.3463 15.0099 57.9862 15.0994 57.6709 15.2784C57.3598 15.4531 57.1148 15.7067 56.9358 16.0391C56.7611 16.3714 56.6737 16.7741 56.6737 17.2472ZM70.2313 13.1818V14.9716H64.5871V13.1818H70.2313ZM65.9806 10.8295H68.2945V20.0469C68.2945 20.358 68.3414 20.5966 68.4351 20.7628C68.5331 20.9247 68.661 21.0355 68.8186 21.0952C68.9763 21.1548 69.151 21.1847 69.3428 21.1847C69.4877 21.1847 69.6198 21.174 69.7391 21.1527C69.8627 21.1314 69.9564 21.1122 70.0203 21.0952L70.4102 22.9041C70.2867 22.9467 70.1098 22.9936 69.8797 23.0447C69.6539 23.0959 69.3769 23.1257 69.0487 23.1342C68.4692 23.1513 67.9472 23.0639 67.4827 22.8722C67.0182 22.6761 66.6496 22.3736 66.3769 21.9645C66.1084 21.5554 65.9763 21.044 65.9806 20.4304V10.8295ZM76.4076 23.1918C75.4232 23.1918 74.5731 22.9872 73.8572 22.5781C73.1455 22.1648 72.5979 21.581 72.2144 20.8267C71.8309 20.0682 71.6391 19.1754 71.6391 18.1484C71.6391 17.1385 71.8309 16.2521 72.2144 15.4893C72.6022 14.7223 73.1434 14.1257 73.838 13.6996C74.5326 13.2692 75.3486 13.054 76.2861 13.054C76.8912 13.054 77.4623 13.152 77.9992 13.348C78.5404 13.5398 79.0177 13.8381 79.431 14.2429C79.8486 14.6477 80.1768 15.1634 80.4154 15.7898C80.654 16.4119 80.7733 17.1534 80.7733 18.0142V18.7237H72.7258V17.1641H78.5553C78.551 16.7209 78.4552 16.3267 78.2677 15.9815C78.0802 15.6321 77.8181 15.3572 77.4814 15.157C77.1491 14.9567 76.7613 14.8565 76.3181 14.8565C75.8451 14.8565 75.4296 14.9716 75.0716 15.2017C74.7137 15.4276 74.4346 15.7259 74.2343 16.0966C74.0383 16.4631 73.9381 16.8658 73.9339 17.3047V18.6662C73.9339 19.2372 74.0383 19.7273 74.2471 20.1364C74.4559 20.5412 74.7478 20.8523 75.1228 21.0696C75.4978 21.2827 75.9367 21.3892 76.4395 21.3892C76.7762 21.3892 77.0809 21.3423 77.3536 21.2486C77.6263 21.1506 77.8628 21.0078 78.0631 20.8203C78.2634 20.6328 78.4147 20.4006 78.517 20.1236L80.6775 20.3665C80.5411 20.9375 80.2812 21.4361 79.8976 21.8622C79.5184 22.2841 79.0326 22.6122 78.4403 22.8466C77.8479 23.0767 77.1704 23.1918 76.4076 23.1918ZM82.7309 23V13.1818H84.9745V14.8182H85.0768C85.2558 14.2514 85.5626 13.8146 85.9972 13.5078C86.4362 13.1967 86.9369 13.0412 87.4994 13.0412C87.6272 13.0412 87.77 13.0476 87.9276 13.0604C88.0896 13.0689 88.2238 13.0838 88.3303 13.1051V15.2337C88.2323 15.1996 88.0768 15.1697 87.8637 15.1442C87.6549 15.1143 87.4525 15.0994 87.2565 15.0994C86.8346 15.0994 86.4553 15.1911 86.1187 15.3743C85.7863 15.5533 85.5242 15.8026 85.3325 16.1222C85.1407 16.4418 85.0448 16.8104 85.0448 17.228V23H82.7309ZM93.746 23.1918C92.7659 23.1918 91.9243 22.9766 91.2211 22.5462C90.5223 22.1158 89.9832 21.5213 89.604 20.7628C89.229 20 89.0415 19.1222 89.0415 18.1293C89.0415 17.1321 89.2332 16.2521 89.6167 15.4893C90.0003 14.7223 90.5415 14.1257 91.2403 13.6996C91.9434 13.2692 92.7744 13.054 93.7332 13.054C94.5301 13.054 95.2354 13.201 95.849 13.495C96.4669 13.7848 96.9591 14.196 97.3256 14.7287C97.692 15.2571 97.9008 15.875 97.952 16.5824H95.7403C95.6508 16.1094 95.4378 15.7152 95.1011 15.3999C94.7687 15.0803 94.3234 14.9205 93.7652 14.9205C93.2922 14.9205 92.8767 15.0483 92.5187 15.304C92.1608 15.5554 91.8817 15.9176 91.6814 16.3906C91.4854 16.8636 91.3873 17.4304 91.3873 18.0909C91.3873 18.7599 91.4854 19.3352 91.6814 19.8168C91.8774 20.294 92.1523 20.6626 92.5059 20.9226C92.8639 21.1783 93.2836 21.3061 93.7652 21.3061C94.1061 21.3061 94.4108 21.2422 94.6792 21.1143C94.952 20.9822 95.18 20.7926 95.3632 20.5455C95.5464 20.2983 95.6721 19.9979 95.7403 19.6442H97.952C97.8966 20.3388 97.692 20.9545 97.3383 21.4915C96.9846 22.0241 96.5031 22.4418 95.8937 22.7443C95.2844 23.0426 94.5684 23.1918 93.746 23.1918ZM104.135 23.1918C103.176 23.1918 102.345 22.9808 101.642 22.5589C100.939 22.1371 100.393 21.5469 100.005 20.7884C99.6219 20.0298 99.4301 19.1435 99.4301 18.1293C99.4301 17.1151 99.6219 16.2266 100.005 15.4638C100.393 14.701 100.939 14.1087 101.642 13.6868C102.345 13.2649 103.176 13.054 104.135 13.054C105.093 13.054 105.924 13.2649 106.628 13.6868C107.331 14.1087 107.874 14.701 108.258 15.4638C108.645 16.2266 108.839 17.1151 108.839 18.1293C108.839 19.1435 108.645 20.0298 108.258 20.7884C107.874 21.5469 107.331 22.1371 106.628 22.5589C105.924 22.9808 105.093 23.1918 104.135 23.1918ZM104.147 21.3381C104.667 21.3381 105.102 21.1953 105.451 20.9098C105.801 20.62 106.061 20.2322 106.231 19.7464C106.406 19.2607 106.493 18.7195 106.493 18.1229C106.493 17.522 106.406 16.9787 106.231 16.4929C106.061 16.0028 105.801 15.6129 105.451 15.3232C105.102 15.0334 104.667 14.8885 104.147 14.8885C103.615 14.8885 103.172 15.0334 102.818 15.3232C102.468 15.6129 102.206 16.0028 102.032 16.4929C101.861 16.9787 101.776 17.522 101.776 18.1229C101.776 18.7195 101.861 19.2607 102.032 19.7464C102.206 20.2322 102.468 20.62 102.818 20.9098C103.172 21.1953 103.615 21.3381 104.147 21.3381ZM110.803 23V13.1818H113.015V14.8501H113.13C113.334 14.2876 113.673 13.8487 114.146 13.5334C114.619 13.2138 115.184 13.054 115.84 13.054C116.505 13.054 117.065 13.2159 117.521 13.5398C117.981 13.8594 118.305 14.2962 118.493 14.8501H118.595C118.812 14.3047 119.179 13.87 119.695 13.5462C120.214 13.218 120.83 13.054 121.542 13.054C122.445 13.054 123.182 13.3395 123.753 13.9105C124.324 14.4815 124.61 15.3146 124.61 16.4098V23H122.29V16.7678C122.29 16.1584 122.128 15.7131 121.804 15.4318C121.48 15.1463 121.084 15.0036 120.615 15.0036C120.057 15.0036 119.62 15.1783 119.305 15.5277C118.994 15.8729 118.838 16.3224 118.838 16.8764V23H116.569V16.6719C116.569 16.1648 116.415 15.7599 116.109 15.4574C115.806 15.1548 115.41 15.0036 114.92 15.0036C114.587 15.0036 114.285 15.0888 114.012 15.2592C113.739 15.4254 113.522 15.6619 113.36 15.9688C113.198 16.2713 113.117 16.625 113.117 17.0298V23H110.803Z" fill="#DDDDDD"/>
</svg>
