<svg width="24" height="24" viewBox="0 0 24 24" fill="none" xmlns="http://www.w3.org/2000/svg">
<path d="M20.2303 11.0783C20.2019 10.9581 20.1442 10.8468 20.0625 10.7542C19.9807 10.6617 19.8773 10.5907 19.7615 10.5477L14.3606 8.52178L15.735 1.64709C15.7661 1.48736 15.7444 1.32184 15.6732 1.17551C15.602 1.02918 15.4851 0.90998 15.3403 0.835894C15.1954 0.761808 15.0303 0.736858 14.87 0.764809C14.7097 0.79276 14.5628 0.872095 14.4515 0.990843L3.95153 12.2408C3.86625 12.3307 3.80456 12.4403 3.77197 12.5598C3.73937 12.6793 3.73689 12.8051 3.76475 12.9258C3.79261 13.0465 3.84993 13.1584 3.9316 13.2516C4.01328 13.3447 4.11675 13.4162 4.23278 13.4596L9.63559 15.4855L8.26497 22.3527C8.23385 22.5124 8.25552 22.678 8.32673 22.8243C8.39793 22.9706 8.51479 23.0898 8.65968 23.1639C8.80457 23.238 8.96963 23.263 9.12995 23.235C9.29026 23.2071 9.43714 23.1277 9.54841 23.009L20.0484 11.759C20.1321 11.6691 20.1925 11.56 20.2242 11.4413C20.2559 11.3227 20.258 11.198 20.2303 11.0783ZM10.2534 20.0624L11.235 15.1518C11.2701 14.9776 11.2423 14.7966 11.1564 14.6411C11.0706 14.4855 10.9323 14.3655 10.7662 14.3024L5.81247 12.4415L13.7456 3.94209L12.765 8.85272C12.7298 9.02688 12.7577 9.20785 12.8435 9.3634C12.9294 9.51895 13.0676 9.63898 13.2337 9.70209L18.1837 11.5583L10.2534 20.0624Z" fill="#005CE7"/>
<path d="M10.2534 20.0624L11.235 15.1518C11.2701 14.9776 11.2423 14.7966 11.1564 14.6411C11.0706 14.4855 10.9323 14.3655 10.7662 14.3024L5.81247 12.4415L13.7456 3.94209L12.765 8.85272C12.7298 9.02688 12.7577 9.20785 12.8435 9.3634C12.9294 9.51895 13.0676 9.63898 13.2337 9.70209L18.1837 11.5583L10.2534 20.0624Z" fill="#005CE7"/>
</svg>
