<svg width="106" height="32" viewBox="0 0 106 32" fill="none" xmlns="http://www.w3.org/2000/svg">
<path d="M6.95026 6.64958C7.84626 7.37705 8.18119 7.32158 9.86439 7.20851L25.7215 6.25705C26.0585 6.25705 25.7791 5.92211 25.666 5.86664L23.0313 3.96158C22.5279 3.56905 21.8559 3.12105 20.5673 3.23411L5.21159 4.35411C4.65266 4.40958 4.53959 4.68905 4.76359 4.91305L6.95026 6.64958ZM7.90172 10.3445V27.0293C7.90172 27.9253 8.34972 28.2624 9.35879 28.2069L26.7881 27.1978C27.7951 27.1424 27.9081 26.5258 27.9081 25.7984V9.22451C27.9081 8.49918 27.6287 8.10451 27.0121 8.15998L8.79772 9.22451C8.12572 9.27998 7.90172 9.61705 7.90172 10.3445ZM25.1071 11.2405C25.218 11.744 25.1071 12.2474 24.6015 12.305L23.7609 12.4714V24.7914C23.0335 25.1818 22.3593 25.4058 21.7983 25.4058C20.9023 25.4058 20.6783 25.1264 20.0063 24.2858L14.5129 15.6629V24.0064L16.2516 24.3989C16.2516 24.3989 16.2516 25.4058 14.85 25.4058L10.9844 25.6298C10.8713 25.4058 10.9844 24.8469 11.3769 24.7338L12.3839 24.4565V13.4229L10.9865 13.312C10.8735 12.8085 11.1529 12.081 11.938 12.0234L16.0852 11.7461L21.8025 20.48V12.753L20.3455 12.5845C20.2324 11.968 20.6804 11.52 21.2415 11.4645L25.1071 11.2405ZM3.92306 2.84158L19.8953 1.66611C21.8559 1.49545 22.3615 1.61064 23.5924 2.50665L28.6911 6.09064C29.5337 6.70505 29.8132 6.87358 29.8132 7.54558V27.1978C29.8132 28.4309 29.3652 29.1605 27.7951 29.2693L9.24786 30.3893C8.07026 30.4469 7.50919 30.2784 6.89266 29.4933L3.13799 24.6229C2.46599 23.7269 2.18652 23.0549 2.18652 22.2698V4.79998C2.18652 3.79305 2.63452 2.95251 3.92306 2.84158Z" fill="#DDDDDD"/>
<path d="M60.1769 9.90909V23H58.0676L51.8992 14.0831H51.7906V23H49.4191V9.90909H51.5413L57.7032 18.8324H57.8183V9.90909H60.1769ZM66.9413 23.1918C65.9825 23.1918 65.1515 22.9808 64.4484 22.5589C63.7453 22.1371 63.1998 21.5469 62.8121 20.7884C62.4285 20.0298 62.2368 19.1435 62.2368 18.1293C62.2368 17.1151 62.4285 16.2266 62.8121 15.4638C63.1998 14.701 63.7453 14.1087 64.4484 13.6868C65.1515 13.2649 65.9825 13.054 66.9413 13.054C67.9001 13.054 68.7311 13.2649 69.4342 13.6868C70.1373 14.1087 70.6807 14.701 71.0642 15.4638C71.452 16.2266 71.6459 17.1151 71.6459 18.1293C71.6459 19.1435 71.452 20.0298 71.0642 20.7884C70.6807 21.5469 70.1373 22.1371 69.4342 22.5589C68.7311 22.9808 67.9001 23.1918 66.9413 23.1918ZM66.9541 21.3381C67.474 21.3381 67.9086 21.1953 68.2581 20.9098C68.6075 20.62 68.8675 20.2322 69.0379 19.7464C69.2126 19.2607 69.3 18.7195 69.3 18.1229C69.3 17.522 69.2126 16.9787 69.0379 16.4929C68.8675 16.0028 68.6075 15.6129 68.2581 15.3232C67.9086 15.0334 67.474 14.8885 66.9541 14.8885C66.4214 14.8885 65.9782 15.0334 65.6246 15.3232C65.2751 15.6129 65.0131 16.0028 64.8383 16.4929C64.6679 16.9787 64.5827 17.522 64.5827 18.1229C64.5827 18.7195 64.6679 19.2607 64.8383 19.7464C65.0131 20.2322 65.2751 20.62 65.6246 20.9098C65.9782 21.1953 66.4214 21.3381 66.9541 21.3381ZM78.5125 13.1818V14.9716H72.8683V13.1818H78.5125ZM74.2618 10.8295H76.5757V20.0469C76.5757 20.358 76.6226 20.5966 76.7164 20.7628C76.8144 20.9247 76.9422 21.0355 77.0999 21.0952C77.2575 21.1548 77.4323 21.1847 77.624 21.1847C77.7689 21.1847 77.901 21.174 78.0203 21.1527C78.1439 21.1314 78.2377 21.1122 78.3016 21.0952L78.6915 22.9041C78.5679 22.9467 78.3911 22.9936 78.161 23.0447C77.9351 23.0959 77.6581 23.1257 77.33 23.1342C76.7504 23.1513 76.2284 23.0639 75.7639 22.8722C75.2994 22.6761 74.9308 22.3736 74.6581 21.9645C74.3896 21.5554 74.2575 21.044 74.2618 20.4304V10.8295ZM80.4477 23V13.1818H82.7616V23H80.4477ZM81.6111 11.7884C81.2446 11.7884 80.9292 11.6669 80.665 11.424C80.4008 11.1768 80.2687 10.8807 80.2687 10.5355C80.2687 10.1861 80.4008 9.88991 80.665 9.64702C80.9292 9.39986 81.2446 9.27628 81.6111 9.27628C81.9818 9.27628 82.2971 9.39986 82.5571 9.64702C82.8213 9.88991 82.9534 10.1861 82.9534 10.5355C82.9534 10.8807 82.8213 11.1768 82.5571 11.424C82.2971 11.6669 81.9818 11.7884 81.6111 11.7884ZM89.4237 23.1918C88.4649 23.1918 87.634 22.9808 86.9308 22.5589C86.2277 22.1371 85.6823 21.5469 85.2945 20.7884C84.911 20.0298 84.7192 19.1435 84.7192 18.1293C84.7192 17.1151 84.911 16.2266 85.2945 15.4638C85.6823 14.701 86.2277 14.1087 86.9308 13.6868C87.634 13.2649 88.4649 13.054 89.4237 13.054C90.3825 13.054 91.2135 13.2649 91.9166 13.6868C92.6198 14.1087 93.1631 14.701 93.5466 15.4638C93.9344 16.2266 94.1283 17.1151 94.1283 18.1293C94.1283 19.1435 93.9344 20.0298 93.5466 20.7884C93.1631 21.5469 92.6198 22.1371 91.9166 22.5589C91.2135 22.9808 90.3825 23.1918 89.4237 23.1918ZM89.4365 21.3381C89.9564 21.3381 90.3911 21.1953 90.7405 20.9098C91.0899 20.62 91.3499 20.2322 91.5203 19.7464C91.695 19.2607 91.7824 18.7195 91.7824 18.1229C91.7824 17.522 91.695 16.9787 91.5203 16.4929C91.3499 16.0028 91.0899 15.6129 90.7405 15.3232C90.3911 15.0334 89.9564 14.8885 89.4365 14.8885C88.9039 14.8885 88.4607 15.0334 88.107 15.3232C87.7575 15.6129 87.4955 16.0028 87.3208 16.4929C87.1503 16.9787 87.0651 17.522 87.0651 18.1229C87.0651 18.7195 87.1503 19.2607 87.3208 19.7464C87.4955 20.2322 87.7575 20.62 88.107 20.9098C88.4607 21.1953 88.9039 21.3381 89.4365 21.3381ZM98.4062 17.2472V23H96.0922V13.1818H98.3039V14.8501H98.4189C98.6448 14.3004 99.0049 13.8636 99.4992 13.5398C99.9978 13.2159 100.614 13.054 101.347 13.054C102.024 13.054 102.614 13.1989 103.117 13.4886C103.624 13.7784 104.016 14.1982 104.293 14.7479C104.574 15.2976 104.713 15.9645 104.709 16.7486V23H102.395V17.1065C102.395 16.4503 102.224 15.9368 101.883 15.5661C101.547 15.1953 101.08 15.0099 100.484 15.0099C100.079 15.0099 99.7187 15.0994 99.4033 15.2784C99.0922 15.4531 98.8472 15.7067 98.6682 16.0391C98.4935 16.3714 98.4062 16.7741 98.4062 17.2472Z" fill="#DDDDDD"/>
</svg>
