<svg width="132" height="32" viewBox="0 0 132 32" fill="none" xmlns="http://www.w3.org/2000/svg">
<rect x="11" width="12" height="9" fill="#DDDDDD"/>
<rect y="23" width="34" height="9" fill="#DDDDDD"/>
<rect x="24" y="14" width="10" height="18" fill="#DDDDDD"/>
<rect y="14" width="10" height="18" fill="#DDDDDD"/>
<path d="M59.9203 9.90909H62.2917V18.4616C62.2917 19.3991 62.0701 20.2237 61.627 20.9354C61.188 21.647 60.5701 22.2031 59.7733 22.6037C58.9764 23 58.0453 23.1982 56.9799 23.1982C55.9103 23.1982 54.9771 23 54.1802 22.6037C53.3833 22.2031 52.7654 21.647 52.3265 20.9354C51.8876 20.2237 51.6681 19.3991 51.6681 18.4616V9.90909H54.0396V18.2635C54.0396 18.8089 54.1589 19.2947 54.3975 19.7209C54.6404 20.147 54.9814 20.4815 55.4203 20.7244C55.8592 20.9631 56.3791 21.0824 56.9799 21.0824C57.5808 21.0824 58.1007 20.9631 58.5396 20.7244C58.9828 20.4815 59.3237 20.147 59.5623 19.7209C59.801 19.2947 59.9203 18.8089 59.9203 18.2635V9.90909ZM67.081 17.2472V23H64.767V13.1818H66.9787V14.8501H67.0938C67.3196 14.3004 67.6797 13.8636 68.174 13.5398C68.6726 13.2159 69.2884 13.054 70.0213 13.054C70.6989 13.054 71.2891 13.1989 71.7919 13.4886C72.299 13.7784 72.6911 14.1982 72.968 14.7479C73.2493 15.2976 73.3878 15.9645 73.3835 16.7486V23H71.0696V17.1065C71.0696 16.4503 70.8991 15.9368 70.5582 15.5661C70.2216 15.1953 69.755 15.0099 69.1584 15.0099C68.7536 15.0099 68.3935 15.0994 68.0781 15.2784C67.767 15.4531 67.522 15.7067 67.343 16.0391C67.1683 16.3714 67.081 16.7741 67.081 17.2472ZM83.4957 15.777L81.3864 16.0071C81.3267 15.794 81.2223 15.5938 81.0732 15.4062C80.9283 15.2188 80.7322 15.0675 80.4851 14.9524C80.2379 14.8374 79.9354 14.7798 79.5774 14.7798C79.0959 14.7798 78.6911 14.8842 78.3629 15.093C78.0391 15.3018 77.8793 15.5724 77.8835 15.9048C77.8793 16.1903 77.9837 16.4226 78.1967 16.6016C78.4141 16.7805 78.772 16.9276 79.2706 17.0426L80.9453 17.4006C81.8743 17.6009 82.5646 17.9183 83.0163 18.353C83.4723 18.7876 83.7024 19.3565 83.7067 20.0597C83.7024 20.6776 83.5213 21.223 83.1634 21.696C82.8097 22.1648 82.3175 22.5312 81.6868 22.7955C81.0561 23.0597 80.3317 23.1918 79.5135 23.1918C78.3118 23.1918 77.3445 22.9403 76.6115 22.4375C75.8786 21.9304 75.4418 21.2251 75.3011 20.3217L77.5575 20.1044C77.6598 20.5476 77.8771 20.8821 78.2095 21.108C78.5419 21.3338 78.9744 21.4467 79.5071 21.4467C80.0568 21.4467 80.4979 21.3338 80.8303 21.108C81.1669 20.8821 81.3352 20.603 81.3352 20.2706C81.3352 19.9893 81.2266 19.7571 81.0092 19.5739C80.7962 19.3906 80.4638 19.25 80.0121 19.152L78.3374 18.8004C77.3956 18.6044 76.6989 18.2741 76.2472 17.8097C75.7955 17.3409 75.5717 16.7486 75.576 16.0327C75.5717 15.4276 75.7358 14.9034 76.0682 14.4602C76.4048 14.0128 76.8714 13.6676 77.468 13.4247C78.0689 13.1776 78.7614 13.054 79.5455 13.054C80.696 13.054 81.6016 13.299 82.2621 13.7891C82.9268 14.2791 83.3381 14.9418 83.4957 15.777ZM85.6147 26.6818V13.1818H87.8903V14.8054H88.0245C88.1438 14.5668 88.3121 14.3132 88.5295 14.0447C88.7468 13.772 89.0408 13.5398 89.4116 13.348C89.7823 13.152 90.2553 13.054 90.8306 13.054C91.5891 13.054 92.2731 13.2479 92.8825 13.6357C93.4961 14.0192 93.9819 14.5881 94.3398 15.3423C94.7021 16.0923 94.8832 17.0128 94.8832 18.1037C94.8832 19.1818 94.7063 20.098 94.3526 20.8523C93.9989 21.6065 93.5174 22.1818 92.908 22.5781C92.2987 22.9744 91.6083 23.1726 90.837 23.1726C90.2745 23.1726 89.8079 23.0788 89.4371 22.8913C89.0664 22.7038 88.7681 22.478 88.5423 22.2138C88.3207 21.9453 88.1481 21.6918 88.0245 21.4531H87.9286V26.6818H85.6147ZM87.8839 18.0909C87.8839 18.7259 87.9734 19.282 88.1523 19.7592C88.3356 20.2365 88.5977 20.6094 88.9386 20.8778C89.2837 21.142 89.7013 21.2741 90.1914 21.2741C90.7028 21.2741 91.131 21.1378 91.4762 20.8651C91.8214 20.5881 92.0813 20.2109 92.256 19.7337C92.435 19.2521 92.5245 18.7045 92.5245 18.0909C92.5245 17.4815 92.4371 16.9403 92.2624 16.4673C92.0877 15.9943 91.8278 15.6236 91.4826 15.3551C91.1374 15.0866 90.707 14.9524 90.1914 14.9524C89.6971 14.9524 89.2773 15.0824 88.9322 15.3423C88.587 15.6023 88.3249 15.9666 88.146 16.4354C87.9712 16.9041 87.8839 17.456 87.8839 18.0909ZM99.1786 9.90909V23H96.8647V9.90909H99.1786ZM104.383 23.1982C103.761 23.1982 103.201 23.0874 102.702 22.8658C102.208 22.6399 101.816 22.3075 101.526 21.8686C101.241 21.4297 101.098 20.8885 101.098 20.245C101.098 19.6911 101.2 19.233 101.405 18.8707C101.609 18.5085 101.888 18.2188 102.242 18.0014C102.596 17.7841 102.994 17.62 103.437 17.5092C103.885 17.3942 104.347 17.3111 104.824 17.2599C105.4 17.2003 105.866 17.147 106.224 17.1001C106.582 17.049 106.842 16.9723 107.004 16.87C107.17 16.7635 107.253 16.5994 107.253 16.3778V16.3395C107.253 15.858 107.111 15.4851 106.825 15.2209C106.54 14.9567 106.128 14.8246 105.591 14.8246C105.025 14.8246 104.575 14.9482 104.243 15.1953C103.915 15.4425 103.693 15.7344 103.578 16.071L101.417 15.7642C101.588 15.1676 101.869 14.669 102.261 14.2685C102.653 13.8636 103.133 13.5611 103.699 13.3608C104.266 13.1562 104.893 13.054 105.579 13.054C106.052 13.054 106.523 13.1094 106.991 13.2202C107.46 13.331 107.888 13.5142 108.276 13.7699C108.664 14.0213 108.975 14.3643 109.209 14.799C109.448 15.2337 109.567 15.777 109.567 16.429V23H107.343V21.6513H107.266C107.126 21.924 106.927 22.1797 106.672 22.4183C106.42 22.6527 106.103 22.8423 105.719 22.9872C105.34 23.1278 104.895 23.1982 104.383 23.1982ZM104.984 21.4979C105.449 21.4979 105.851 21.4062 106.192 21.223C106.533 21.0355 106.795 20.7884 106.979 20.4815C107.166 20.1747 107.26 19.8402 107.26 19.478V18.321C107.187 18.3807 107.064 18.4361 106.889 18.4872C106.719 18.5384 106.527 18.5831 106.314 18.6214C106.101 18.6598 105.89 18.6939 105.681 18.7237C105.472 18.7536 105.291 18.7791 105.138 18.8004C104.792 18.8473 104.483 18.924 104.211 19.0305C103.938 19.1371 103.723 19.2862 103.565 19.478C103.407 19.6655 103.329 19.9084 103.329 20.2067C103.329 20.6328 103.484 20.9545 103.795 21.1719C104.106 21.3892 104.503 21.4979 104.984 21.4979ZM119.654 15.777L117.545 16.0071C117.485 15.794 117.381 15.5938 117.231 15.4062C117.086 15.2188 116.89 15.0675 116.643 14.9524C116.396 14.8374 116.094 14.7798 115.736 14.7798C115.254 14.7798 114.849 14.8842 114.521 15.093C114.197 15.3018 114.037 15.5724 114.042 15.9048C114.037 16.1903 114.142 16.4226 114.355 16.6016C114.572 16.7805 114.93 16.9276 115.429 17.0426L117.104 17.4006C118.032 17.6009 118.723 17.9183 119.175 18.353C119.631 18.7876 119.861 19.3565 119.865 20.0597C119.861 20.6776 119.68 21.223 119.322 21.696C118.968 22.1648 118.476 22.5312 117.845 22.7955C117.214 23.0597 116.49 23.1918 115.672 23.1918C114.47 23.1918 113.503 22.9403 112.77 22.4375C112.037 21.9304 111.6 21.2251 111.459 20.3217L113.716 20.1044C113.818 20.5476 114.035 20.8821 114.368 21.108C114.7 21.3338 115.133 21.4467 115.665 21.4467C116.215 21.4467 116.656 21.3338 116.988 21.108C117.325 20.8821 117.493 20.603 117.493 20.2706C117.493 19.9893 117.385 19.7571 117.167 19.5739C116.954 19.3906 116.622 19.25 116.17 19.152L114.496 18.8004C113.554 18.6044 112.857 18.2741 112.405 17.8097C111.954 17.3409 111.73 16.7486 111.734 16.0327C111.73 15.4276 111.894 14.9034 112.226 14.4602C112.563 14.0128 113.03 13.6676 113.626 13.4247C114.227 13.1776 114.92 13.054 115.704 13.054C116.854 13.054 117.76 13.299 118.42 13.7891C119.085 14.2791 119.496 14.9418 119.654 15.777ZM124.087 17.2472V23H121.773V9.90909H124.036V14.8501H124.151C124.381 14.2962 124.737 13.8594 125.218 13.5398C125.704 13.2159 126.322 13.054 127.072 13.054C127.754 13.054 128.348 13.1967 128.855 13.4822C129.362 13.7678 129.754 14.1854 130.031 14.7351C130.313 15.2848 130.453 15.956 130.453 16.7486V23H128.139V17.1065C128.139 16.446 127.969 15.9325 127.628 15.5661C127.291 15.1953 126.818 15.0099 126.209 15.0099C125.8 15.0099 125.433 15.0994 125.11 15.2784C124.79 15.4531 124.539 15.7067 124.355 16.0391C124.176 16.3714 124.087 16.7741 124.087 17.2472Z" fill="#DDDDDD"/>
</svg>
